<svg id="Layer_1" data-name="Layer 1" xmlns="http://www.w3.org/2000/svg" viewBox="0 0 75 75"><defs><style>.cls-1{fill:#d8d8d8;opacity:0.01;isolation:isolate;}.cls-2,.cls-9{fill:#aae1f9;}.cls-10,.cls-12,.cls-13,.cls-14,.cls-15,.cls-2,.cls-3,.cls-4,.cls-5,.cls-8{fill-rule:evenodd;}.cls-3{fill:#f9e109;}.cls-4,.cls-7{fill:#57b7eb;}.cls-5{fill:#fcbc04;}.cls-10,.cls-6{fill:#c4f236;}.cls-8{fill:#a1d51c;}.cls-11,.cls-14{fill:#f89c8d;}.cls-12{fill:#f8664f;}.cls-13{fill:#cc5144;}.cls-15{fill:#39519d;}</style></defs><title>campaigns_icon</title><g id="User-Role-"><g id="campaigns_icon" data-name="campaigns icon"><rect id="Rectangle-3" class="cls-1" width="75" height="75"/><g id="Group-16"><polygon id="Shape" class="cls-2" points="11 39 39 39 39 61 11 61 11 39"/><path class="cls-3" d="M-245.38,39.5h34v2a4,4,0,0,1-4,4h-26a4,4,0,0,1-4-4v-2Z" transform="translate(253.38 21.5)"/><path class="cls-4" d="M-238.38,25.5v-8h-4v22h28v-4h-14a10,10,0,0,1-10-10Z" transform="translate(253.38 21.5)"/><path class="cls-5" d="M-239.38,42.5a3,3,0,0,1-3-3h-3v2a4,4,0,0,0,4,4h26a4,4,0,0,0,3.86-3Z" transform="translate(253.38 21.5)"/><rect id="Rectangle-path" class="cls-6" x="50" y="40" width="16" height="16" rx="2"/><circle id="Oval" class="cls-7" cx="58" cy="48" r="3"/><path class="cls-8" d="M-200.38,23.5v-5h-1a2,2,0,0,0-2,2v12a2,2,0,0,0,2,2h12a2,2,0,0,0,2-2v-1h-5a8,8,0,0,1-8-8Z" transform="translate(253.38 21.5)"/><circle class="cls-9" cx="59" cy="47" r="1"/><polygon class="cls-10" points="8 18 20 18 20 34 8 34 8 18"/><circle class="cls-11" cx="32" cy="16" r="8"/><polygon class="cls-2" points="30 19 30 13 36 16 30 19"/><path class="cls-12" d="M-218.38-.5a8,8,0,0,1-8-8,7.91,7.91,0,0,1,1-3.95,8,8,0,0,0-3.82,8.31,8,8,0,0,0,6.46,6.46,8,8,0,0,0,8.31-3.82,7.87,7.87,0,0,1-4,1Z" transform="translate(253.38 21.5)"/><rect class="cls-9" x="50" y="9" width="16" height="16" rx="2"/><path class="cls-4" d="M-200.38-7.5v-5h-1a2,2,0,0,0-2,2v12a2,2,0,0,0,2,2h12a2,2,0,0,0,2-2V.5h-5a8,8,0,0,1-8-8Z" transform="translate(253.38 21.5)"/><path class="cls-8" d="M-242.38,3.5v-7h-3v16h12v-3h-3a6,6,0,0,1-6-6Z" transform="translate(253.38 21.5)"/><path class="cls-12" d="M-229.32,27.67l3.47-2,4,6.92a2,2,0,0,1-.74,2.74,2,2,0,0,1-2.73-.74l-4-6.92Z" transform="translate(253.38 21.5)"/><polygon class="cls-13" points="30.06 51.55 27.53 47.16 24.06 49.16 26.43 53.26 28.16 52.26 30.06 51.55"/><polygon class="cls-10" points="45.25 43.86 28.16 50.26 23.16 41.6 37.25 30 45.25 43.86"/><path class="cls-14" d="M-234.55,22.6l4.33-2.5,5,8.66-4.33,2.5a3,3,0,0,1-4.09-1.1l-2-3.46a3,3,0,0,1,1.09-4.1Z" transform="translate(253.38 21.5)"/><path class="cls-13" d="M-237.38,27.7l1.73-1,2,3.46-1.73,1a2,2,0,0,1-2.74-.73,2,2,0,0,1,.74-2.73Z" transform="translate(253.38 21.5)"/><path class="cls-8" d="M-224.06,25.7l-.3.14-1.91,1.1,1.05,1.82,17.09-6.4-1.25-2.16Z" transform="translate(253.38 21.5)"/><path class="cls-12" d="M-226.82,27.26a5,5,0,0,1-5.2-.14,5,5,0,0,1-2.26-4.68l-.27.16a3,3,0,0,0-1.4,1.82,3,3,0,0,0,.3,2.28l2,3.46a3,3,0,0,0,1.82,1.4,3,3,0,0,0,2.28-.3l4.33-2.5-1.05-1.82Z" transform="translate(253.38 21.5)"/><g id="Group"><path class="cls-15" d="M-211.38,38.5h-2V28.7a1,1,0,0,0-1-1,1,1,0,0,0-1,1v9.8h-26v-20h8.32a1,1,0,0,0,1-1,1,1,0,0,0-1-1h-9.32a1,1,0,0,0-1,1v21h-2a1,1,0,0,0-1,1v2a5,5,0,0,0,5,5h26a5,5,0,0,0,5-5v-2a1,1,0,0,0-1-1Zm-1,3a3,3,0,0,1-3,3h-2v-1a1,1,0,0,0-1-1,1,1,0,0,0-1,1v1h-18v-1a1,1,0,0,0-1-1,1,1,0,0,0-1,1v1h-2a3,3,0,0,1-3-3v-1h32Z" transform="translate(253.38 21.5)"/><path class="cls-15" d="M-194.38-7.5h2a1,1,0,0,0,1-1,1,1,0,0,0-1-1h-2a3,3,0,0,0-3,3v1h-1a1,1,0,0,0-1,1,1,1,0,0,0,1,1h1v3a1,1,0,0,0,1,1,1,1,0,0,0,1-1v-3h1a1,1,0,0,0,1-1,1,1,0,0,0-1-1h-1v-1a1,1,0,0,1,1-1Z" transform="translate(253.38 21.5)"/><path class="cls-15" d="M-189.38-13.5h-12a3,3,0,0,0-3,3v2a1,1,0,0,0,1,1,1,1,0,0,0,1-1v-2a1,1,0,0,1,1-1h12a1,1,0,0,1,1,1v12a1,1,0,0,1-1,1h-12a1,1,0,0,1-1-1v-6a1,1,0,0,0-1-1,1,1,0,0,0-1,1v6a3,3,0,0,0,3,3h12a3,3,0,0,0,3-3v-12a3,3,0,0,0-3-3Z" transform="translate(253.38 21.5)"/><path class="cls-15" d="M-199.38,26.5a4,4,0,0,0,4,4,4,4,0,0,0,4-4,4,4,0,0,0-4-4,4,4,0,0,0-4,4Zm6,0a2,2,0,0,1-2,2,2,2,0,0,1-2-2,2,2,0,0,1,2-2,2,2,0,0,1,2,2Z" transform="translate(253.38 21.5)"/><path class="cls-15" d="M-189.38,17.5h-12a3,3,0,0,0-3,3v12a3,3,0,0,0,3,3h12a3,3,0,0,0,3-3v-2a1,1,0,0,0-1-1,1,1,0,0,0-1,1v2a1,1,0,0,1-1,1h-12a1,1,0,0,1-1-1v-12a1,1,0,0,1,1-1h12a1,1,0,0,1,1,1v6a1,1,0,0,0,1,1,1,1,0,0,0,1-1v-6a3,3,0,0,0-3-3Z" transform="translate(253.38 21.5)"/><path class="cls-15" d="M-223.91-1.65a1,1,0,0,0,.53.15,1,1,0,0,0,.45-.11l6-3a1,1,0,0,0,.54-.89,1,1,0,0,0-.54-.89l-6-3a1,1,0,0,0-1,0,1,1,0,0,0-.48.85v6a1,1,0,0,0,.47.85Zm1.53-5.23,2.76,1.38-2.76,1.38Z" transform="translate(253.38 21.5)"/><path class="cls-15" d="M-221.38,3.5a9,9,0,0,0,9-9,9,9,0,0,0-9-9,9,9,0,0,0-9,9,9,9,0,0,0,9,9Zm0-16a7,7,0,0,1,7,7,7,7,0,0,1-7,7,7,7,0,0,1-7-7,7,7,0,0,1,7-7Z" transform="translate(253.38 21.5)"/><path class="cls-15" d="M-211.38,7.5a1,1,0,0,0,.8-.4l3-4a1,1,0,0,0-.2-1.4,1,1,0,0,0-1.4.2l-3,4a1,1,0,0,0,.2,1.4,1,1,0,0,0,.6.2Z" transform="translate(253.38 21.5)"/><path class="cls-15" d="M-209.18,11.1a1,1,0,0,0,.8.4,1,1,0,0,0,.6-.2l4-3a1,1,0,0,0,.2-1.4,1,1,0,0,0-1.4-.2l-4,3a1,1,0,0,0-.2,1.4Z" transform="translate(253.38 21.5)"/><path class="cls-15" d="M-199.38,13.3a1,1,0,0,0-.43-.66,1,1,0,0,0-.77-.14l-5,1a1,1,0,0,0-.9,1.1,1,1,0,0,0,1.1.9h.2l5-1a1,1,0,0,0,.66-.43,1,1,0,0,0,.14-.77Z" transform="translate(253.38 21.5)"/><path class="cls-15" d="M-245.38,13.5h12a1,1,0,0,0,1-1v-16a1,1,0,0,0-1-1h-12a1,1,0,0,0-1,1v16a1,1,0,0,0,1,1Zm1-16h10v14h-10Z" transform="translate(253.38 21.5)"/><path class="cls-15" d="M-237.38-.5h-2a1,1,0,0,0-1,1,1,1,0,0,0,1,1h2a1,1,0,0,0,1-1,1,1,0,0,0-1-1Z" transform="translate(253.38 21.5)"/><path class="cls-15" d="M-237.38,3.5h-4a1,1,0,0,0-1,1,1,1,0,0,0,1,1h4a1,1,0,0,0,1-1,1,1,0,0,0-1-1Z" transform="translate(253.38 21.5)"/><path class="cls-15" d="M-237.38,7.5h-4a1,1,0,0,0-1,1,1,1,0,0,0,1,1h4a1,1,0,0,0,1-1,1,1,0,0,0-1-1Z" transform="translate(253.38 21.5)"/><path class="cls-15" d="M-212.26,13.2a1,1,0,0,0-.87-.5,1,1,0,0,0-.87.5,1,1,0,0,0,0,1l4.41,7.63-16,6h-.15l-2.6,1.5-1.73,1a2,2,0,0,1-1.52.2,2,2,0,0,1-1.21-.93l-2-3.46A2,2,0,0,1-234,23.5l3.46-2,2.5,4.33a1,1,0,0,0,.87.5,1,1,0,0,0,.87-.5,1,1,0,0,0,0-1l-2.58-4.46L-216.38,10l.41.71a1,1,0,0,0,1.37.37,1,1,0,0,0,.37-1.37l-1-1.73a1,1,0,0,0-.69-.48,1,1,0,0,0-.82.21l-14,11.54L-235,21.73a4,4,0,0,0-1.84,4.53l-1,.57a3,3,0,0,0-1.48,3,3,3,0,0,0,2.2,2.51,2.93,2.93,0,0,0,.78.1,3,3,0,0,0,1.5-.4l1-.57a3.78,3.78,0,0,0,1.75,1,3.74,3.74,0,0,0,1.05.14,3.93,3.93,0,0,0,2-.54l.87-.5,2,3.47a3,3,0,0,0,4.09,1.1,3,3,0,0,0,1.4-1.82,3,3,0,0,0-.3-2.28l-1.82-3.17,15-5.63a1,1,0,0,0,.59-.6,1,1,0,0,0-.07-.83Zm-23.62,17.09a1,1,0,0,1-.76.1,1,1,0,0,1-.61-.46,1,1,0,0,1-.1-.76,1,1,0,0,1,.47-.61l.87-.5,1,1.73Zm13.16,2.8a1,1,0,0,1,.1.76,1,1,0,0,1-.47.6,1,1,0,0,1-1.36-.36l-2-3.47,1.66-.95h.08Z" transform="translate(253.38 21.5)"/></g></g></g></g></svg>