<svg id="Layer_1" data-name="Layer 1" xmlns="http://www.w3.org/2000/svg" viewBox="0 0 75 75"><defs><style>.cls-1{fill:#d8d8d8;opacity:0.01;isolation:isolate;}.cls-2{fill:#969faa;}.cls-10,.cls-12,.cls-13,.cls-2,.cls-3,.cls-4,.cls-5,.cls-6,.cls-8,.cls-9{fill-rule:evenodd;}.cls-3{fill:#aab2bd;}.cls-4{fill:#ccd1d9;}.cls-5{fill:#e6e9ed;}.cls-6{fill:#69d6f4;}.cls-7{fill:#ff826e;}.cls-8{fill:#b27946;}.cls-9{fill:#b4dd7f;}.cls-10{fill:#fcd770;}.cls-11,.cls-12{fill:#f0d0b4;}</style></defs><title>consultant_icon</title><g id="User-Role-"><g id="consultant_icon" data-name="consultant icon"><rect id="Rectangle-3-Copy-4" class="cls-1" width="75" height="75"/><g id="Group-14"><g id="_30" data-name="30"><g id="Group"><polygon id="Shape" class="cls-2" points="48 60 52 60 52 68 48 68 48 60"/><polygon class="cls-3" points="39 60 48 60 48 68 39 68 39 60"/><path class="cls-4" d="M-56,4.5v6h-8.21a23.32,23.32,0,0,0-2.23-6Z" transform="translate(98 15.5)"/><path class="cls-4" d="M-32,14.5v29a1,1,0,0,1-1,1H-64l2-2,2.76-2.76a4.24,4.24,0,0,0,1.24-3v-.09a.86.86,0,0,0,0-.16h20v-22h6Z" transform="translate(98 15.5)"/><path class="cls-5" d="M-30-5.5v18a2,2,0,0,1-2,2h-2a8,8,0,0,0-8-8h-1a5,5,0,0,0,5-5,5,5,0,0,0-5-5,5,5,0,0,0-5,5,5,5,0,0,0,5,5h-1a8,8,0,0,0-8,8h-2a2,2,0,0,1-2-2v-18a2,2,0,0,1,2-2h22a2,2,0,0,1,2,2Z" transform="translate(98 15.5)"/><path class="cls-6" d="M-66,16.5c0-.16,0-.32,0-.48V13.5l2-1a10.62,10.62,0,0,0-.21-2H-56v2a2,2,0,0,0,2,2h10v2.59a1.41,1.41,0,0,0,1.41,1.41,1.41,1.41,0,0,0,1-.41L-38,14.5v22H-58a4.16,4.16,0,0,0-4.17-4h-.15a4.05,4.05,0,0,0-2.86,1.19L-67,35.5l-1.24-2.89A12.24,12.24,0,0,0-74,26.5v-4l0-.27,2.56-.23A6,6,0,0,0-66,16.5Z" transform="translate(98 15.5)"/><circle id="Oval" class="cls-7" cx="43" cy="37" r="7"/><path class="cls-8" d="M-80.66-7A10,10,0,0,0-84,.5v6a2,2,0,0,0-2,2v7l-1.81-2.71A13.05,13.05,0,0,1-90,5.55,13,13,0,0,1-80.66-7Z" transform="translate(98 15.5)"/><path class="cls-8" d="M-73,4.48v0s-3,0-3,4a2,2,0,0,0-2-2h-2V1.33A10.3,10.3,0,0,1-75-7.5h5a5.94,5.94,0,0,1,4.24,1.76A5.94,5.94,0,0,1-64-1.5a6,6,0,0,1-2.92,5.14A5.87,5.87,0,0,1-70,4.5h-2.63l-.37,0Z" transform="translate(98 15.5)"/><path class="cls-2" d="M-80,6.5v12h-4a2,2,0,0,1-2-2v-8a2,2,0,0,1,2-2Z" transform="translate(98 15.5)"/><path class="cls-2" d="M-76,8.5v8a2,2,0,0,1-2,2h-2V6.5h2a2,2,0,0,1,2,2Z" transform="translate(98 15.5)"/><path class="cls-4" d="M-76.95-7.5h2a10.3,10.3,0,0,0-5,8.83V6.5h-4V.5A10,10,0,0,1-80.66-7a13,13,0,0,1,3.71-.54Z" transform="translate(98 15.5)"/><path class="cls-9" d="M-72,40.5l4-4,6,6-2,2-6.19,6.19a6.17,6.17,0,0,1-4.36,1.81,6.14,6.14,0,0,1-3.61-1.16,6.16,6.16,0,0,1-2.25-3.06l-5.37-16.12A4.21,4.21,0,0,1-86,30.8a4.29,4.29,0,0,1,1.26-3A4.29,4.29,0,0,1-82,26.51h.3a6.62,6.62,0,0,1,3.84,1.22,5.86,5.86,0,0,1,.89.76,6.61,6.61,0,0,1,1.55,2.44Z" transform="translate(98 15.5)"/><path class="cls-9" d="M-68.24,32.61-67,35.5l-1,1-4,4-3.42-9.58A6.61,6.61,0,0,0-77,28.48h0l3-2a12.24,12.24,0,0,1,5.76,6.11Z" transform="translate(98 15.5)"/><path class="cls-10" d="M-34,14.5h-4l-3.59,3.59a1.41,1.41,0,0,1-1,.41A1.41,1.41,0,0,1-44,17.09V14.5h-8a8,8,0,0,1,8-8h2a8,8,0,0,1,8,8Z" transform="translate(98 15.5)"/><circle class="cls-11" cx="55" cy="17" r="5"/><path class="cls-12" d="M-58,36.66v.09a4.24,4.24,0,0,1-1.24,3L-62,42.5l-6-6,1-1,1.81-1.81a4.05,4.05,0,0,1,2.86-1.19h.15a4.16,4.16,0,0,1,4.17,4,.86.86,0,0,1,0,.16Z" transform="translate(98 15.5)"/><path class="cls-12" d="M-66,16.5A6,6,0,0,1-71.46,22l-2.56.23,0,.27v4l-3,2h0a5.86,5.86,0,0,0-.89-.76A6.62,6.62,0,0,0-81.7,26.5H-82v-8h4a2,2,0,0,0,2-2v-8c0-4,3-4,3-4v0l.37,0H-70a5.87,5.87,0,0,0,3.08-.86h0s.19.31.46.85h0a23.32,23.32,0,0,1,2.23,6,10.62,10.62,0,0,1,.21,2l-2,1V16c0,.16,0,.32,0,.48Z" transform="translate(98 15.5)"/><circle cx="29" cy="24" r="1"/><path class="cls-13" d="M-32-8.5H-54a3,3,0,0,0-3,3v9h-8.11A7,7,0,0,0-63-1.5a7,7,0,0,0-7-7h-7A14.06,14.06,0,0,0-91,5.55a13.94,13.94,0,0,0,2.36,7.79L-87,15.8v.7a3,3,0,0,0,3,3h1v6.18a5.3,5.3,0,0,0-4,5.12,5.32,5.32,0,0,0,.27,1.68l5.38,16.12a7.14,7.14,0,0,0,6.8,4.9,7.12,7.12,0,0,0,5.06-2.1l5.9-5.9H-60v6h-4v2h23v-2h-4v-6h12a2,2,0,0,0,2-2V15.32a3,3,0,0,0,2-2.82v-18a3,3,0,0,0-3-3Zm-11,14a4,4,0,0,1-4-4,4,4,0,0,1,4-4,4,4,0,0,1,4,4,4,4,0,0,1-4,4Zm1,2a7,7,0,0,1,6.92,6h-3.33l-3.88,3.88a.43.43,0,0,1-.71-.29V13.5h-7.92A7,7,0,0,1-44,7.5Zm-15.14,28a5.19,5.19,0,0,0-5-4h-.15A5,5,0,0,0-65.89,33l-.77.77-.66-1.53A13.16,13.16,0,0,0-73,25.91V23.14l1.64-.15A7,7,0,0,0-65,16v-1.9l2-1V12.5a8.51,8.51,0,0,0-.06-1H-57v1a3,3,0,0,0,.25,1.2A8,8,0,0,0-63,21.5a8,8,0,0,0,8,8,8,8,0,0,0,8-8,8,8,0,0,0-2.73-6H-45v1.59a2.41,2.41,0,0,0,2.41,2.41,2.43,2.43,0,0,0,1.71-.71L-39,16.91V35.5ZM-62,41.09l-4.59-4.59,2.11-2.11a3.05,3.05,0,0,1,2.15-.89h.15A3.2,3.2,0,0,1-59,36.75a3.21,3.21,0,0,1-1,2.28Zm-12-13.42A11.19,11.19,0,0,1-69.16,33l1,2.27-3.41,3.41-2.89-8.09a7.37,7.37,0,0,0-1-1.9Zm25-6.17a6,6,0,0,1-6,6,6,6,0,0,1-6-6,6,6,0,0,1,6-6,6,6,0,0,1,6,6Zm-8-12h-6.41a22.91,22.91,0,0,0-1.43-4H-57Zm-24-4h-2V.5A9,9,0,0,1-80.15-6a11.35,11.35,0,0,1,2.27-.4A11.37,11.37,0,0,0-81,1.33Zm-8,0a12,12,0,0,1,5.11-9.83A10.86,10.86,0,0,0-85,.5V5.68A3,3,0,0,0-87,8.5v3.69a12,12,0,0,1-2-6.64Zm4,11v-8a1,1,0,0,1,1-1h3v10h-3a1,1,0,0,1-1-1Zm6-9h1a1,1,0,0,1,1,1v8a1,1,0,0,1-1,1h-1Zm1,12a3,3,0,0,0,3-3v-8a3,3,0,0,0-3-3h-1V1.33A9.34,9.34,0,0,1-74.69-6.5H-70a5,5,0,0,1,5,5,5,5,0,0,1-5,5h-2.63A2.37,2.37,0,0,1-75,1.13a2.38,2.38,0,0,1,1.79-2.3l1.45-.36-.48-1.94-1.45.36A4.36,4.36,0,0,0-77,1.13,4.37,4.37,0,0,0-72.63,5.5H-70A7,7,0,0,0-67.33,5,19.85,19.85,0,0,1-65,11.89l-2,1V15.5h-.76a2.63,2.63,0,0,1-2.35-1.45l-1.79.9a4.62,4.62,0,0,0,4.14,2.55h.52A5,5,0,0,1-71.55,21l-5.54.5.18,2,1.91-.18V26l-1.89,1.27A7.71,7.71,0,0,0-81,25.55V19.5ZM-70.9,50a5.16,5.16,0,0,1-3.66,1.51A5.17,5.17,0,0,1-79.46,48l-5.37-16.12A3.39,3.39,0,0,1-85,30.8a3.3,3.3,0,0,1,3.3-3.3,5.68,5.68,0,0,1,5.34,3.76l3.21,9-4.56,4.55,1.42,1.42,8.29-8.3,4.59,4.59ZM-58,45.5h7v6h-7Zm11,6h-2v-6h2Zm-14.59-8,3.06-3a5.17,5.17,0,0,0,1.45-3H-37v-22h4v28ZM-31,12.5a1,1,0,0,1-1,1h-1.06A9,9,0,0,0-39,6,6,6,0,0,0-37,1.5a6,6,0,0,0-6-6,6,6,0,0,0-6,6,6,6,0,0,0,2,4.51,9,9,0,0,0-6,7.49H-54a1,1,0,0,1-1-1v-18a1,1,0,0,1,1-1h22a1,1,0,0,1,1,1Z" transform="translate(98 15.5)"/><polygon class="cls-13" points="47 47 49 47 49 49 47 49 47 47"/><polygon class="cls-13" points="51 47 53 47 53 49 51 49 51 47"/><polygon class="cls-13" points="43 47 45 47 45 49 43 49 43 47"/><polygon class="cls-13" points="55 55 59 55 59 57 55 57 55 55"/><polygon class="cls-13" points="51 55 53 55 53 57 51 57 51 55"/></g></g></g></g></g></svg>