<svg id="Layer_1" data-name="Layer 1" xmlns="http://www.w3.org/2000/svg" viewBox="0 0 75 75"><defs><style>.cls-1{fill:#d8d8d8;opacity:0.01;isolation:isolate;}.cls-2{fill:#d9ddff;}.cls-10,.cls-11,.cls-2,.cls-3,.cls-4,.cls-5,.cls-6,.cls-7,.cls-8,.cls-9{fill-rule:evenodd;}.cls-3{fill:#6967bf;}.cls-4{fill:#5b59b2;}.cls-5{fill:#7776d0;}.cls-6{fill:#fff5b5;}.cls-7{fill:#ffef8f;}.cls-8{fill:#a6f5cf;}.cls-9{fill:#ffd54d;}.cls-10{fill:#ff8ccc;}</style></defs><title>crm_icon</title><g id="User-Role-"><g id="crm_icon" data-name="crm icon"><rect id="Rectangle-3-Copy-2" class="cls-1" width="75" height="75"/><g id="Group-6"><g id="Group"><g id="Shape"><path class="cls-2" d="M-345.57,27.88h-38.75a3.57,3.57,0,0,1-3.57-3.57V1a4.27,4.27,0,0,1,4.27-4.27h38A4.27,4.27,0,0,1-341.31,1V23.61a4.27,4.27,0,0,1-4.26,4.27Z" transform="translate(395.78 30.5)"/><polygon class="cls-3" points="37.33 67.11 25.05 67.11 27.11 58.38 35.26 58.38 37.33 67.11"/><polygon class="cls-4" points="35.26 58.38 30.5 58.38 32.56 67.11 37.33 67.11 35.26 58.38"/><path class="cls-5" d="M-387.89,20.37v3.94a3.57,3.57,0,0,0,3.57,3.57h39.44a3.57,3.57,0,0,0,3.57-3.57V20.37Z" transform="translate(395.78 30.5)"/><path class="cls-6" d="M-333.46-11.69V7.8A3.18,3.18,0,0,1-336.64,11h-7.66l-5.21,3.88V11h-3.77a3.18,3.18,0,0,1-3.18-3.18V-11.69a3.18,3.18,0,0,1,3.18-3.18h16.64a3.18,3.18,0,0,1,3.18,3.18Z" transform="translate(395.78 30.5)"/><path class="cls-7" d="M-336.64-14.87h-4.76a3.18,3.18,0,0,1,3.18,3.18V7.8A3.19,3.19,0,0,1-341.4,11h4.76a3.18,3.18,0,0,0,3.18-3.18V-11.69a3.18,3.18,0,0,0-3.18-3.18Z" transform="translate(395.78 30.5)"/><path class="cls-8" d="M-333.09,26a4.61,4.61,0,0,1,.5,2.1,4.65,4.65,0,0,1-4.64,4.65,4.64,4.64,0,0,1-4.14-2.54l-3.48,1.78a8.54,8.54,0,0,0,7.62,4.67,8.55,8.55,0,0,0,8.55-8.56,8.48,8.48,0,0,0-.93-3.88Z" transform="translate(395.78 30.5)"/><path class="cls-9" d="M-341.87,28.05a4.64,4.64,0,0,1,4.64-4.64V19.5a8.55,8.55,0,0,0-8.55,8.55,8.49,8.49,0,0,0,.93,3.89l3.48-1.78a4.65,4.65,0,0,1-.5-2.11Z" transform="translate(395.78 30.5)"/><path class="cls-10" d="M-333.09,26l3.48-1.78a8.54,8.54,0,0,0-7.62-4.67v3.91A4.64,4.64,0,0,1-333.09,26Z" transform="translate(395.78 30.5)"/><polygon class="cls-9" points="11.93 17.19 17.21 17.19 17.21 22.72 11.93 22.72 11.93 17.19"/><polygon class="cls-8" points="28.1 13.81 33.39 13.81 33.39 22.72 28.1 22.72 28.1 13.81"/><polygon class="cls-10" points="20.01 7.89 25.3 7.89 25.3 22.72 20.01 22.72 20.01 7.89"/></g><path class="cls-11" d="M-369.07,8.21a.9.9,0,0,0,1-.72l.42-2.33.7,2.38a1,1,0,0,0,1,.73,1.1,1.1,0,0,0,1-.74l.68-2.37.44,2.34a.9.9,0,0,0,1.05.71.9.9,0,0,0,.71-1.05l-1.06-5.52a1,1,0,0,0-2-.08l-.83,2.94-.87-2.94a1,1,0,0,0-2,.11l-1,5.5a.9.9,0,0,0,.72,1Z" transform="translate(395.78 30.5)"/><path class="cls-11" d="M-380.07,8.27a3.19,3.19,0,0,0,2.46-1.12.89.89,0,0,0-.11-1.26A.89.89,0,0,0-379,6a1.47,1.47,0,0,1-1.09.48A1.94,1.94,0,0,1-382,4.55a1.94,1.94,0,0,1,1.94-1.94,2,2,0,0,1,1.08.33.89.89,0,0,0,1.24-.24A.9.9,0,0,0-378,1.46a3.77,3.77,0,0,0-2.08-.63,3.72,3.72,0,0,0-3.72,3.72,3.72,3.72,0,0,0,3.72,3.72Z" transform="translate(395.78 30.5)"/><path class="cls-11" d="M-375.13,8.27a.89.89,0,0,0,.89-.9V6.27l1.5,1.69a.88.88,0,0,0,1.26.08.9.9,0,0,0,.08-1.26l-1.26-1.42a2.36,2.36,0,0,0,1.48-2.17A2.41,2.41,0,0,0-373.63.83h-1.5a.89.89,0,0,0-.89.89V7.37a.89.89,0,0,0,.89.9Zm1.5-5.66a.63.63,0,0,1,.66.58.63.63,0,0,1-.66.58h-.6V2.61Z" transform="translate(395.78 30.5)"/><path class="cls-11" d="M-349.26.25v-4a.89.89,0,0,0-.89-.9.9.9,0,0,0-.9.9v4a.89.89,0,0,0,.9.89.89.89,0,0,0,.89-.89Z" transform="translate(395.78 30.5)"/><path class="cls-11" d="M-338.87.25v-4a.9.9,0,0,0-.9-.9.89.89,0,0,0-.89.9v4a.89.89,0,0,0,.89.89.89.89,0,0,0,.9-.89Z" transform="translate(395.78 30.5)"/><path class="cls-11" d="M-342.9-.84V-2.71A2.06,2.06,0,0,0-345-4.77,2.06,2.06,0,0,0-347-2.71V-.84A2.07,2.07,0,0,0-345,1.23,2.07,2.07,0,0,0-342.9-.84Zm-1.78,0a.28.28,0,0,1-.28.28.27.27,0,0,1-.27-.28V-2.71A.27.27,0,0,1-345-3a.28.28,0,0,1,.28.27Z" transform="translate(395.78 30.5)"/><path class="cls-11" d="M-344.07-6.62v-4a.89.89,0,0,0-.89-.89.89.89,0,0,0-.89.89v4a.89.89,0,0,0,.89.9.89.89,0,0,0,.89-.9Z" transform="translate(395.78 30.5)"/><path class="cls-11" d="M-348.09-9.57a2.07,2.07,0,0,0-2.06-2.07,2.07,2.07,0,0,0-2.07,2.07V-7.7a2.07,2.07,0,0,0,2.07,2.06,2.07,2.07,0,0,0,2.06-2.06Zm-1.79,1.87a.27.27,0,0,1-.27.27.28.28,0,0,1-.28-.27V-9.57a.28.28,0,0,1,.28-.28.27.27,0,0,1,.27.28Z" transform="translate(395.78 30.5)"/><path class="cls-11" d="M-337.7-9.57a2.07,2.07,0,0,0-2.07-2.07,2.07,2.07,0,0,0-2.06,2.07V-7.7a2.07,2.07,0,0,0,2.06,2.06A2.07,2.07,0,0,0-337.7-7.7Zm-1.79,1.87a.27.27,0,0,1-.28.27A.27.27,0,0,1-340-7.7V-9.57a.27.27,0,0,1,.27-.28.27.27,0,0,1,.28.28Z" transform="translate(395.78 30.5)"/><path class="cls-11" d="M-345.85,3.08v4A.89.89,0,0,0-345,8a.89.89,0,0,0,.89-.89v-4a.89.89,0,0,0-.89-.9.89.89,0,0,0-.89.9Z" transform="translate(395.78 30.5)"/><path class="cls-11" d="M-352.22,4.16V6a2.07,2.07,0,0,0,2.07,2.06A2.06,2.06,0,0,0-348.09,6V4.16a2.06,2.06,0,0,0-2.06-2.06,2.07,2.07,0,0,0-2.07,2.06Zm1.79,0a.28.28,0,0,1,.28-.27.27.27,0,0,1,.27.27V6a.28.28,0,0,1-.27.28.29.29,0,0,1-.28-.28Z" transform="translate(395.78 30.5)"/><path class="cls-11" d="M-341.83,4.16V6a2.06,2.06,0,0,0,2.06,2.06A2.07,2.07,0,0,0-337.7,6V4.16a2.07,2.07,0,0,0-2.07-2.06,2.06,2.06,0,0,0-2.06,2.06Zm1.79,0a.27.27,0,0,1,.27-.27.27.27,0,0,1,.28.27V6a.28.28,0,0,1-.28.28A.28.28,0,0,1-340,6Z" transform="translate(395.78 30.5)"/><path class="cls-11" d="M-328.81,23.76h0a9.42,9.42,0,0,0-8.42-5.15,9.28,9.28,0,0,0-3.18.55V11.87h3.77a4.08,4.08,0,0,0,4.08-4.07V.8a.9.9,0,0,0-1.79,0v7a2.29,2.29,0,0,1-2.29,2.28h-7.66a.85.85,0,0,0-.53.18l-3.79,2.82V11a.89.89,0,0,0-.89-.9h-3.77a2.29,2.29,0,0,1-2.29-2.28v-11h0v-8.44A2.3,2.3,0,0,1-353.28-14h16.64a2.3,2.3,0,0,1,2.29,2.29V-4a.9.9,0,0,0,1.79,0v-7.73a4.08,4.08,0,0,0-4.08-4.08h-16.64a4.08,4.08,0,0,0-4.08,4.08v7.56h-26.26A5.16,5.16,0,0,0-388.78,1V24.31a4.46,4.46,0,0,0,4.46,4.46h2.09a.89.89,0,0,0,0-1.78h-2.09A2.69,2.69,0,0,1-387,24.31v-3h43.21A9.48,9.48,0,0,0-346.62,27H-377.2a.89.89,0,0,0,0,1.78h7.4l-1.65,6.94h-3.16a.89.89,0,0,0-.89.9.89.89,0,0,0,.89.89h20a.89.89,0,0,0,.89-.89.89.89,0,0,0-.89-.9h-3.16l-1.64-6.94h12.74a9.31,9.31,0,0,0,1,3.57,9.41,9.41,0,0,0,8.42,5.16,9.46,9.46,0,0,0,9.45-9.45,9.39,9.39,0,0,0-1-4.29Zm-11.76,6h0a3.71,3.71,0,0,1-.41-1.7,3.76,3.76,0,0,1,3.75-3.75,3.73,3.73,0,0,1,3.34,2.05,3.74,3.74,0,0,1,.41,1.7,3.75,3.75,0,0,1-3.75,3.75,3.71,3.71,0,0,1-3.34-2.05Zm9.71-5.95-1.91,1a5.44,5.44,0,0,0-3.57-2.19V20.45a7.58,7.58,0,0,1,5.48,3.35ZM-387,1a3.39,3.39,0,0,1,3.38-3.38h26.26V7.8a4.08,4.08,0,0,0,4.08,4.07h2.87v3a.9.9,0,0,0,1.43.72l5-3.71h1.8v7.61H-387Zm48.88,19.42v2.14a5.55,5.55,0,0,0-4.65,5.46,5.63,5.63,0,0,0,.26,1.69l-1.9,1h0a7.68,7.68,0,0,1-.47-2.66,7.66,7.66,0,0,1,6.77-7.6Zm-21.47,15.26h-10l1.64-6.94h6.74Zm22.36,0a7.63,7.63,0,0,1-6.38-3.41l1.92-1a5.5,5.5,0,0,0,4.46,2.26,5.55,5.55,0,0,0,5.54-5.54,5.57,5.57,0,0,0-.26-1.68l1.5-.77.41-.2a7.62,7.62,0,0,1,.47,2.65,7.67,7.67,0,0,1-7.66,7.66Z" transform="translate(395.78 30.5)"/><path class="cls-11" d="M-383.86-6.89a.89.89,0,0,0,.9-.89v-4.64h3.5v4.64a.9.9,0,0,0,1.79,0v-5.53a.89.89,0,0,0-.9-.89h-5.29a.89.89,0,0,0-.89.89v5.53a.89.89,0,0,0,.89.89Z" transform="translate(395.78 30.5)"/><path class="cls-11" d="M-367.68-6.89a.89.89,0,0,0,.89-.89v-8h3.5v8a.9.9,0,0,0,1.79,0v-8.91a.89.89,0,0,0-.89-.89h-5.29a.89.89,0,0,0-.9.89v8.91a.89.89,0,0,0,.9.89Z" transform="translate(395.78 30.5)"/><path class="cls-11" d="M-375.77-6.89a.89.89,0,0,0,.89-.89V-21.71h3.51V-7.78a.89.89,0,0,0,1.78,0V-22.61a.89.89,0,0,0-.89-.89h-5.29a.89.89,0,0,0-.89.89V-7.78a.89.89,0,0,0,.89.89Z" transform="translate(395.78 30.5)"/><path class="cls-11" d="M-362,10.47h-20.91a.9.9,0,0,0-.9.9.89.89,0,0,0,.9.89H-362a.89.89,0,0,0,.89-.89.89.89,0,0,0-.89-.9Z" transform="translate(395.78 30.5)"/><path class="cls-11" d="M-371.52,14.35h-11.35a.89.89,0,0,0-.9.89.89.89,0,0,0,.9.89h11.35a.89.89,0,0,0,.89-.89.89.89,0,0,0-.89-.89Z" transform="translate(395.78 30.5)"/></g></g></g></g></svg>