<svg id="Layer_1" data-name="Layer 1" xmlns="http://www.w3.org/2000/svg" viewBox="0 0 75 75"><defs><style>.cls-1{fill:#d8d8d8;opacity:0.01;isolation:isolate;}.cls-2{fill:#ffc870;}.cls-2,.cls-3,.cls-4,.cls-6{fill-rule:evenodd;}.cls-3{fill:#ffdaa0;}.cls-4{fill:#fff;}.cls-5{fill:#baee83;}</style></defs><title>resumeparser_icon</title><g id="User-Role-"><g id="resumeparser_icon" data-name="resumeparser icon"><rect id="Rectangle-3-Copy-3" class="cls-1" width="75" height="75"/><g id="Group-7"><path id="Shape" class="cls-2" d="M-72.59,18.69h-35A2.39,2.39,0,0,1-110,16.3V-28a2.39,2.39,0,0,1,2.38-2.38h35A2.38,2.38,0,0,1-70.21-28V16.3a2.38,2.38,0,0,1-2.38,2.39Z" transform="translate(132.84 48.13)"/><path class="cls-3" d="M-77.36,13.92h-35a2.39,2.39,0,0,1-2.39-2.38V-32.78a2.39,2.39,0,0,1,2.39-2.39h35A2.39,2.39,0,0,1-75-32.78V11.54a2.39,2.39,0,0,1-2.39,2.38Z" transform="translate(132.84 48.13)"/><path class="cls-4" d="M-82.13,9.15h-35a2.39,2.39,0,0,1-2.38-2.39V-37.56a2.39,2.39,0,0,1,2.38-2.38h35a2.38,2.38,0,0,1,2.38,2.38V6.76a2.38,2.38,0,0,1-2.38,2.39Z" transform="translate(132.84 48.13)"/><rect id="Rectangle-path" class="cls-5" x="19.98" y="17.01" width="11.44" height="11.44"/><path class="cls-6" d="M-82.13,10.34h-35a3.57,3.57,0,0,1-3.57-3.58V-15.36a1.19,1.19,0,0,1,1.19-1.19,1.19,1.19,0,0,1,1.19,1.19V6.76A1.2,1.2,0,0,0-117.16,8h35a1.19,1.19,0,0,0,1.19-1.2V-37.56a1.19,1.19,0,0,0-1.19-1.19h-35a1.2,1.2,0,0,0-1.19,1.19V-25.4a1.19,1.19,0,0,1-1.19,1.19,1.19,1.19,0,0,1-1.19-1.19V-37.56a3.57,3.57,0,0,1,3.57-3.57h35a3.58,3.58,0,0,1,3.58,3.57V6.76a3.58,3.58,0,0,1-3.58,3.58Z" transform="translate(132.84 48.13)"/><path class="cls-6" d="M-119.54-18.88a1.16,1.16,0,0,1-.84-.35,1.19,1.19,0,0,1-.35-.84,1.21,1.21,0,0,1,.35-.84,1.21,1.21,0,0,1,.84-.35,1.21,1.21,0,0,1,.84.35,1.16,1.16,0,0,1,.35.84,1.15,1.15,0,0,1-.35.84,1.16,1.16,0,0,1-.84.35Z" transform="translate(132.84 48.13)"/><path class="cls-6" d="M-114.77,15.11a1.16,1.16,0,0,1-.84-.35,1.21,1.21,0,0,1-.35-.84,1.21,1.21,0,0,1,.35-.84,1.21,1.21,0,0,1,.84-.35,1.23,1.23,0,0,1,.85.35,1.21,1.21,0,0,1,.35.84,1.21,1.21,0,0,1-.35.84,1.19,1.19,0,0,1-.85.35Z" transform="translate(132.84 48.13)"/><path class="cls-6" d="M-77.36,15.11H-110a1.19,1.19,0,0,1-1.19-1.19A1.19,1.19,0,0,1-110,12.73h32.64a1.2,1.2,0,0,0,1.2-1.19V-35.17A1.19,1.19,0,0,1-75-36.36a1.19,1.19,0,0,1,1.19,1.19V11.54a3.57,3.57,0,0,1-3.58,3.57Z" transform="translate(132.84 48.13)"/><path class="cls-6" d="M-72.58,19.87H-110a1.19,1.19,0,0,1-1.19-1.19A1.19,1.19,0,0,1-110,17.49h37.41a1.2,1.2,0,0,0,1.19-1.19V-30.41A1.19,1.19,0,0,1-70.2-31.6,1.19,1.19,0,0,1-69-30.41V16.3a3.57,3.57,0,0,1-3.57,3.57Z" transform="translate(132.84 48.13)"/><path class="cls-6" d="M-101.43-18.49h-11.44a1.2,1.2,0,0,1-1.19-1.19V-31.12a1.19,1.19,0,0,1,1.19-1.19h11.44a1.19,1.19,0,0,1,1.19,1.19v11.44a1.19,1.19,0,0,1-1.19,1.19Zm-10.25-2.39h9.06v-9h-9.06v9.05Z" transform="translate(132.84 48.13)"/><path class="cls-6" d="M-110.11-7h0a1.23,1.23,0,0,1-.85-.35l-2.31-2.31a1.19,1.19,0,0,1,0-1.69,1.2,1.2,0,0,1,1.68,0l1.48,1.47,3.16-3.16a1.19,1.19,0,0,1,1.69,0,1.2,1.2,0,0,1,0,1.68l-4,4a1.22,1.22,0,0,1-.84.35Z" transform="translate(132.84 48.13)"/><path class="cls-6" d="M-85.74-9.08h-13.9a1.19,1.19,0,0,1-1.19-1.19,1.19,1.19,0,0,1,1.19-1.19h13.9a1.19,1.19,0,0,1,1.19,1.19,1.19,1.19,0,0,1-1.19,1.19Z" transform="translate(132.84 48.13)"/><path class="cls-6" d="M-86.42-29.93h-8.34a1.19,1.19,0,0,1-1.19-1.19,1.19,1.19,0,0,1,1.19-1.19h8.34a1.19,1.19,0,0,1,1.19,1.19,1.19,1.19,0,0,1-1.19,1.19Z" transform="translate(132.84 48.13)"/><path class="cls-6" d="M-86.42-24.21h-8.34a1.19,1.19,0,0,1-1.19-1.19,1.19,1.19,0,0,1,1.19-1.19h8.34a1.19,1.19,0,0,1,1.19,1.19,1.19,1.19,0,0,1-1.19,1.19Z" transform="translate(132.84 48.13)"/><path class="cls-6" d="M-86.42-18.49h-8.34a1.19,1.19,0,0,1-1.19-1.19,1.19,1.19,0,0,1,1.19-1.2h8.34a1.19,1.19,0,0,1,1.19,1.2,1.19,1.19,0,0,1-1.19,1.19Z" transform="translate(132.84 48.13)"/><path class="cls-6" d="M-110.11,2.06h0a1.23,1.23,0,0,1-.85-.35l-2.31-2.32a1.18,1.18,0,0,1,0-1.68,1.18,1.18,0,0,1,1.68,0l1.48,1.47L-106.95-4a1.21,1.21,0,0,1,1.69,0,1.21,1.21,0,0,1,0,1.69l-4,4a1.22,1.22,0,0,1-.84.35Z" transform="translate(132.84 48.13)"/><path class="cls-6" d="M-85.74,0h-13.9a1.19,1.19,0,0,1-1.19-1.19,1.19,1.19,0,0,1,1.19-1.19h13.9a1.19,1.19,0,0,1,1.19,1.19A1.19,1.19,0,0,1-85.74,0Z" transform="translate(132.84 48.13)"/></g></g></g></svg>