<svg id="Layer_1" data-name="Layer 1" xmlns="http://www.w3.org/2000/svg" viewBox="0 0 75 75"><defs><style>.cls-1{fill:#d8d8d8;opacity:0.01;isolation:isolate;}.cls-2{fill:#e6e7e8;}.cls-2,.cls-3,.cls-4,.cls-5,.cls-7{fill-rule:evenodd;}.cls-3{fill:#d4fbff;}.cls-4{fill:#fff;}.cls-5,.cls-6{fill:#3a2c60;}.cls-7{fill:#0089ef;}</style></defs><title>rfpparser_icon</title><g id="User-Role-"><g id="rfpparser_icon" data-name="rfpparser icon"><rect id="Rectangle-3-Copy" class="cls-1" width="75" height="75"/><path id="Shape" class="cls-2" d="M-268.32.71h-.83a4.24,4.24,0,0,0-4.07-3.1H-275a4.22,4.22,0,0,0-4.08-3.13H-301.6l-.14,0-.05,0a.78.78,0,0,0-.15.1L-314.42,7.18a.78.78,0,0,0-.1.15s0,0,0,0a.68.68,0,0,0,0,.14s0,0,0,0v35a4.23,4.23,0,0,0,4.23,4.22h1.76A4.22,4.22,0,0,0-304.5,50h.83a4.22,4.22,0,0,0,4.06,3.1h31.29a4.23,4.23,0,0,0,4.22-4.23V4.93A4.22,4.22,0,0,0-268.32.71Z" transform="translate(326.57 13.52)"/><path class="cls-3" d="M-273.64-1.52h-1.25a3,3,0,0,1,.06.6V43a3.7,3.7,0,0,1-3.7,3.7h-30a3.7,3.7,0,0,0,3.65,3.09h31.28a3.69,3.69,0,0,0,3.7-3.7V2.18a3.69,3.69,0,0,0-3.7-3.7Z" transform="translate(326.57 13.52)"/><path class="cls-3" d="M-273.63-1.52H-276A3.43,3.43,0,0,1-276-1V42.93a3.7,3.7,0,0,1-3.7,3.7h-28.87a3.69,3.69,0,0,0,3.65,3.13h31.29a3.7,3.7,0,0,0,3.7-3.7V2.18a3.7,3.7,0,0,0-3.7-3.7Z" transform="translate(326.57 13.52)"/><path class="cls-4" d="M-273.58-1.52H-296.1L-308.57,11v35a3.7,3.7,0,0,0,3.7,3.7h31.29a3.69,3.69,0,0,0,3.69-3.7V2.18a3.69,3.69,0,0,0-3.69-3.7Z" transform="translate(326.57 13.52)"/><path class="cls-3" d="M-283.09,17.48v8.84a3.7,3.7,0,0,1-3.7,3.7h-8.78Z" transform="translate(326.57 13.52)"/><polygon class="cls-4" points="31 43.55 32.57 43.55 43.48 32.58 43.48 31 31 43.55"/><g id="Group"><path class="cls-5" d="M-267.68.87h-.82a4.23,4.23,0,0,0-4.07-3.09h-2a4.24,4.24,0,0,0-4.08-3.14h-22.55a.31.31,0,0,0-.13,0h-.05a.56.56,0,0,0-.15.1h0L-314,7.34h0a.4.4,0,0,0-.1.15s0,0,0,0l0,.13V42.75A4.23,4.23,0,0,0-309.93,47h2a4.23,4.23,0,0,0,4.07,3.14h.84A4.21,4.21,0,0,0-299,53.21h31.28A4.23,4.23,0,0,0-263.45,49V5.1A4.24,4.24,0,0,0-267.68.87Zm-34-4.43V4a3.17,3.17,0,0,1-3.17,3.17h-7.51ZM-306.83,47h28.19a4.23,4.23,0,0,0,4.22-4.23V18.12a.52.52,0,0,0-.52-.52.52.52,0,0,0-.53.52V42.75a3.18,3.18,0,0,1-3.17,3.18h-31.29a3.18,3.18,0,0,1-3.17-3.18V8.24h8.25A4.22,4.22,0,0,0-300.63,4V-4.31h22a3.18,3.18,0,0,1,3.17,3.18V8.79a.52.52,0,0,0,.53.52.52.52,0,0,0,.52-.52v-10h1.85A3.17,3.17,0,0,1-269.4,2V45.89a3.17,3.17,0,0,1-3.17,3.17h-31.29a3.17,3.17,0,0,1-3-2.08Zm42.33,2a3.18,3.18,0,0,1-3.18,3.17H-299a3.17,3.17,0,0,1-3-2h29.35a4.23,4.23,0,0,0,4.22-4.23v-44h.68A3.18,3.18,0,0,1-264.5,5.1V49Z" transform="translate(326.57 13.52)"/><path class="cls-5" d="M-274.94,10.89a.53.53,0,0,0-.53.53v3.85a.53.53,0,0,0,.53.53.52.52,0,0,0,.52-.53V11.42a.52.52,0,0,0-.52-.53Z" transform="translate(326.57 13.52)"/><path class="cls-5" d="M-281.89,11.81h-18.65a.53.53,0,0,0-.53.53.52.52,0,0,0,.53.52h18.65a.52.52,0,0,0,.53-.52.53.53,0,0,0-.53-.53Z" transform="translate(326.57 13.52)"/><path class="cls-5" d="M-304.89,10.46a1.89,1.89,0,0,0-1.89,1.88,1.89,1.89,0,0,0,1.89,1.88A1.88,1.88,0,0,0-303,12.34a1.88,1.88,0,0,0-1.88-1.88Z" transform="translate(326.57 13.52)"/><path class="cls-5" d="M-281.89,18.94h-18.65a.53.53,0,0,0-.53.53.52.52,0,0,0,.53.52h18.65a.52.52,0,0,0,.53-.52.53.53,0,0,0-.53-.53Z" transform="translate(326.57 13.52)"/><circle id="Oval" class="cls-6" cx="21.67" cy="32.99" r="1.88"/><path class="cls-5" d="M-281.89,26.07h-18.65a.53.53,0,0,0-.53.53.52.52,0,0,0,.53.52h18.65a.52.52,0,0,0,.53-.52.53.53,0,0,0-.53-.53Z" transform="translate(326.57 13.52)"/><circle class="cls-6" cx="21.67" cy="40.12" r="1.88"/><path class="cls-5" d="M-281.89,33.2h-18.65a.53.53,0,0,0-.53.53.52.52,0,0,0,.53.52h18.65a.52.52,0,0,0,.53-.52.53.53,0,0,0-.53-.53Z" transform="translate(326.57 13.52)"/><circle class="cls-6" cx="21.67" cy="47.25" r="1.88"/></g><path class="cls-7" d="M-291.91.12h-.44v2a.84.84,0,0,1-.17.58.58.58,0,0,1-.45.19.58.58,0,0,1-.47-.19.87.87,0,0,1-.16-.58V-2.66a.82.82,0,0,1,.18-.59.82.82,0,0,1,.59-.18h2a5,5,0,0,1,.72,0,1.93,1.93,0,0,1,.55.14,1.6,1.6,0,0,1,.51.35,1.66,1.66,0,0,1,.34.53,1.78,1.78,0,0,1,.12.65,1.52,1.52,0,0,1-.39,1.1,2.19,2.19,0,0,1-1.19.59,2.37,2.37,0,0,1,.64.53,5.6,5.6,0,0,1,.54.74,5.59,5.59,0,0,1,.38.7,1.67,1.67,0,0,1,.13.44.46.46,0,0,1-.08.24.55.55,0,0,1-.21.19.66.66,0,0,1-.32.07.56.56,0,0,1-.35-.1,1,1,0,0,1-.25-.25c-.07-.1-.16-.25-.28-.45l-.5-.84a5.31,5.31,0,0,0-.49-.7,1.24,1.24,0,0,0-.43-.33,1.49,1.49,0,0,0-.56-.09Zm.72-2.61h-1.16V-.78h1.13a3.28,3.28,0,0,0,.76-.08.84.84,0,0,0,.47-.27.73.73,0,0,0,.17-.51A.78.78,0,0,0-290-2.1a.7.7,0,0,0-.36-.29,2.4,2.4,0,0,0-.87-.1Z" transform="translate(326.57 13.52)"/><path class="cls-7" d="M-283.65-2.46h-2.48V-.87h2.07a.61.61,0,0,1,.43.13.44.44,0,0,1,.14.34.44.44,0,0,1-.14.34.61.61,0,0,1-.43.13h-2.07v2a.81.81,0,0,1-.18.58.55.55,0,0,1-.45.19.58.58,0,0,1-.45-.19.82.82,0,0,1-.18-.58V-2.66a1.08,1.08,0,0,1,.08-.44.49.49,0,0,1,.26-.25,1.06,1.06,0,0,1,.43-.08h3a.61.61,0,0,1,.44.13.45.45,0,0,1,.15.35.46.46,0,0,1-.15.36.68.68,0,0,1-.44.13Z" transform="translate(326.57 13.52)"/><path class="cls-7" d="M-279.72.36h-1.15V2.11a.82.82,0,0,1-.18.58.58.58,0,0,1-.45.19.57.57,0,0,1-.45-.19.81.81,0,0,1-.18-.57V-2.66a.8.8,0,0,1,.19-.59.87.87,0,0,1,.61-.18h1.61a4.32,4.32,0,0,1,1.1.11A1.61,1.61,0,0,1-278-3a1.49,1.49,0,0,1,.42.6,2.07,2.07,0,0,1,.15.8A1.78,1.78,0,0,1-278-.13a2.64,2.64,0,0,1-1.74.49Zm-.3-2.85h-.85v1.9h.85a2.63,2.63,0,0,0,.74-.09.89.89,0,0,0,.45-.31.86.86,0,0,0,.16-.55.93.93,0,0,0-.24-.67A1.61,1.61,0,0,0-280-2.49Z" transform="translate(326.57 13.52)"/></g></g></svg>