<svg id="Layer_1" data-name="Layer 1" xmlns="http://www.w3.org/2000/svg" viewBox="0 0 30 30"><defs><style>.cls-1{fill:none;}.cls-2{fill:#555;fill-rule:evenodd;}</style></defs><title>messages_icon</title><g id="Symbols"><g id="Header-Bar"><g id="messages_icon" data-name="messages icon"><rect id="Rectangle-2-Copy" class="cls-1" width="30" height="30"/><g id="chat"><g id="Capa_1" data-name="Capa 1"><g id="Group"><path id="Shape" class="cls-2" d="M-204.78-24.11h-13a.41.41,0,0,0-.41.42.41.41,0,0,0,.41.41h13a.41.41,0,0,0,.41-.41.41.41,0,0,0-.41-.42Z" transform="translate(230.09 36.02)"/><path class="cls-2" d="M-204.78-20.94h-13a.41.41,0,0,0-.41.42.41.41,0,0,0,.41.41h13a.41.41,0,0,0,.41-.41.41.41,0,0,0-.41-.42Z" transform="translate(230.09 36.02)"/><path class="cls-2" d="M-204.78-17.77h-13a.41.41,0,0,0-.41.42.41.41,0,0,0,.41.41h13a.41.41,0,0,0,.41-.41.41.41,0,0,0-.41-.42Z" transform="translate(230.09 36.02)"/><path class="cls-2" d="M-203.48-27.74H-219.1a2.41,2.41,0,0,0-2.38,2.42v9.93A2.4,2.4,0,0,0-219.1-13h10.95a.38.38,0,0,1,.3.15l3.54,4.53a.69.69,0,0,0,.55.27.67.67,0,0,0,.24,0,.71.71,0,0,0,.48-.68V-13a2.42,2.42,0,0,0,1.95-2.37v-9.93a2.41,2.41,0,0,0-2.39-2.42Zm1.57,12.35a1.58,1.58,0,0,1-1.54,1.58.42.42,0,0,0-.41.42v4.33l-3.35-4.28a1.16,1.16,0,0,0-.94-.47H-219.1a1.57,1.57,0,0,1-1.56-1.58v-9.93a1.58,1.58,0,0,1,1.56-1.59h15.62a1.58,1.58,0,0,1,1.57,1.59Z" transform="translate(230.09 36.02)"/><path class="cls-2" d="M-223-20.88a1.08,1.08,0,0,0-.7.41l-2.82,3.61v-3.61a.41.41,0,0,0-.41-.42,1.32,1.32,0,0,1-1.29-1.32v-8.65A1.33,1.33,0,0,1-227-32.19h13.6A1.33,1.33,0,0,1-212-30.86v1.6a.41.41,0,0,0,.41.41.41.41,0,0,0,.41-.41v-1.6A2.15,2.15,0,0,0-213.36-33H-227a2.15,2.15,0,0,0-2.13,2.16v8.65a2.17,2.17,0,0,0,1.7,2.11v3.67a.68.68,0,0,0,.45.64.62.62,0,0,0,.23,0,.65.65,0,0,0,.52-.26l3.08-3.94a.27.27,0,0,1,.18-.11.42.42,0,0,0,.35-.47.42.42,0,0,0-.47-.35Z" transform="translate(230.09 36.02)"/></g></g></g></g></g></g></svg>