<svg id="Layer_1" data-name="Layer 1" xmlns="http://www.w3.org/2000/svg" viewBox="0 0 30 30"><defs><style>.cls-1{fill:none;}.cls-2{fill:#555;fill-rule:evenodd;}</style></defs><title>notifications_icon</title><g id="Symbols"><g id="Header-Bar"><g id="notifications_icon" data-name="notifications icon"><rect id="Rectangle-2" class="cls-1" width="30" height="30"/><g id="ringing"><path id="Shape" class="cls-2" d="M-106.3-43.63a.5.5,0,0,1-.5-.5A10.93,10.93,0,0,0-110-51.91a.5.5,0,0,1,0-.7.5.5,0,0,1,.71,0,11.9,11.9,0,0,1,3.52,8.48.5.5,0,0,1-.5.5Z" transform="translate(131.8 57.13)"/><path class="cls-2" d="M-127.3-43.63a.5.5,0,0,1-.5-.5,11.89,11.89,0,0,1,3.51-8.48.5.5,0,0,1,.71,0,.5.5,0,0,1,0,.7,10.92,10.92,0,0,0-3.22,7.78.5.5,0,0,1-.5.5Z" transform="translate(131.8 57.13)"/><path class="cls-2" d="M-115.3-49.95a.5.5,0,0,1-.5-.5v-1.68a1,1,0,0,0-1-1,1,1,0,0,0-1,1v1.68a.5.5,0,0,1-.5.5.5.5,0,0,1-.5-.5v-1.68a2,2,0,0,1,2-2,2,2,0,0,1,2,2v1.68a.5.5,0,0,1-.5.5Z" transform="translate(131.8 57.13)"/><path class="cls-2" d="M-116.8-30.13a3.5,3.5,0,0,1-3.5-3.5.5.5,0,0,1,.5-.5.51.51,0,0,1,.5.5,2.5,2.5,0,0,0,2.5,2.5,2.51,2.51,0,0,0,2.5-2.5.5.5,0,0,1,.5-.5.51.51,0,0,1,.5.5,3.5,3.5,0,0,1-3.5,3.5Z" transform="translate(131.8 57.13)"/><path class="cls-2" d="M-108.3-33.13h-17a1.5,1.5,0,0,1-1.5-1.5,1.51,1.51,0,0,1,.52-1.14,6.94,6.94,0,0,0,2.48-5.32v-3a7,7,0,0,1,7-7,7,7,0,0,1,7,7v3a7,7,0,0,0,2.46,5.32,1.47,1.47,0,0,1,.54,1.14,1.5,1.5,0,0,1-1.5,1.5Zm-8.5-17a6,6,0,0,0-6,6v3A8,8,0,0,1-125.62-35a.49.49,0,0,0-.18.38.5.5,0,0,0,.5.5h17a.5.5,0,0,0,.5-.5A.53.53,0,0,0-108-35a8,8,0,0,1-2.82-6.08v-3a6,6,0,0,0-6-6Z" transform="translate(131.8 57.13)"/></g></g></g></g></svg>