<svg id="Layer_1" data-name="Layer 1" xmlns="http://www.w3.org/2000/svg" viewBox="0 0 284.13 251.7"><defs><style>.cls-1{fill:#d1e3ff;}.cls-1,.cls-10,.cls-11,.cls-12,.cls-13,.cls-14,.cls-15,.cls-16,.cls-17,.cls-18,.cls-19,.cls-2,.cls-20,.cls-21,.cls-22,.cls-23,.cls-3,.cls-4,.cls-5,.cls-6,.cls-7,.cls-8,.cls-9{fill-rule:evenodd;}.cls-2{fill:#e3eeff;}.cls-3{fill:#f3f9ff;}.cls-4{fill:#cadefc;}.cls-5{fill:#f6fcff;}.cls-25,.cls-6{fill:#fff;}.cls-7{fill:#dcf0d1;}.cls-8{fill:#ddf0d1;}.cls-9{fill:#f0f7ff;}.cls-10{fill:#ffc3bd;}.cls-11{fill:#555;}.cls-12{fill:#d62c03;}.cls-13{fill:#0053cc;}.cls-14{fill:#407bff;}.cls-15{fill:#dce9ff;}.cls-16{fill:#f29994;}.cls-17{fill:#ed3305;}.cls-18{fill:#0f264c;}.cls-19{fill:#9fc6ff;}.cls-20{fill:#77b3fc;}.cls-21{fill:#ed847e;}.cls-22{fill:#d62c02;}.cls-23{fill:#007bff;}.cls-24,.cls-25{isolation:isolate;}.cls-25{font-size:12px;font-family:OpenSans-Bold, Open Sans;font-weight:700;}</style></defs><title>notifications_img</title><g id="User-Role-"><g id="notifications"><g id="notifications_img" data-name="notifications img"><polygon id="Fill-3" class="cls-1" points="147.62 225.19 163.88 225.19 163.88 225.01 147.62 225.01 147.62 225.19"/><polygon id="Fill-4" class="cls-1" points="68.44 228.22 127.17 228.22 127.17 228.04 68.44 228.04 68.44 228.22"/><polygon id="Fill-5" class="cls-1" points="13.24 227 47.79 227 47.79 226.83 13.24 226.83 13.24 227"/><polygon id="Fill-6" class="cls-1" points="194.86 225.19 255.41 225.19 255.41 225.01 194.86 225.01 194.86 225.19"/><polygon id="Fill-7" class="cls-1" points="2.41 227 7.44 227 7.44 226.83 2.41 226.83 2.41 227"/><path id="Fill-12" class="cls-2" d="M-173,121.87h0c-.39,0-.79,0-1.18,0a16.88,16.88,0,0,0-15.6,15.68,17.06,17.06,0,0,0,.54,5.47A84.21,84.21,0,0,1-186.64,165v21.51a2.83,2.83,0,0,0,2.82,2.83h68.24V121.87Z" transform="translate(381.43 28.27)"/><path id="Fill-14" class="cls-3" d="M-98.77,138.69a16.82,16.82,0,0,0-18-16.78,16.87,16.87,0,0,0-15.59,15.68,16.79,16.79,0,0,0,.54,5.47A84.2,84.2,0,0,1-129.18,165v21.51a2.83,2.83,0,0,0,2.83,2.83h21.54a2.83,2.83,0,0,0,2.83-2.83V163.71a76.77,76.77,0,0,1,2.6-20.53,16.67,16.67,0,0,0,.61-4.49" transform="translate(381.43 28.27)"/><polygon id="Fill-16" class="cls-2" points="147.01 217.57 242.69 217.57 242.69 176.63 147.01 176.63 147.01 217.57"/><path id="Fill-18" class="cls-4" d="M-181.35,99.32h-91A12.72,12.72,0,0,0-285,112v45.58h116.41V112a12.72,12.72,0,0,0-12.72-12.72" transform="translate(381.43 28.27)"/><path id="Fill-19" class="cls-3" d="M-164.72,99.32h-92.2A12.11,12.11,0,0,0-269,111.43v46.19h116.4V111.43a12.11,12.11,0,0,0-12.1-12.11" transform="translate(381.43 28.27)"/><path id="Fill-20" class="cls-4" d="M-139.52,144.62h-90.89a1.11,1.11,0,0,0-1.1,1.11v14.46a1.11,1.11,0,0,0,1.1,1.11h90.89a3.7,3.7,0,0,0,3.69-3.7v-9.28a3.7,3.7,0,0,0-3.69-3.7" transform="translate(381.43 28.27)"/><path id="Fill-21" class="cls-2" d="M-291.08,121.87h0c-.39,0-.78,0-1.18,0a16.87,16.87,0,0,0-15.59,15.68,16.79,16.79,0,0,0,.54,5.47A84.2,84.2,0,0,1-304.68,165v21.51a2.83,2.83,0,0,0,2.83,2.83h68.24V121.87Z" transform="translate(381.43 28.27)"/><path id="Fill-22" class="cls-3" d="M-216.81,138.69a16.81,16.81,0,0,0-18-16.78,16.88,16.88,0,0,0-15.6,15.68,17.06,17.06,0,0,0,.54,5.47A84.21,84.21,0,0,1-247.21,165v21.51a2.83,2.83,0,0,0,2.82,2.83h21.55a2.83,2.83,0,0,0,2.82-2.83V163.71a76.78,76.78,0,0,1,2.61-20.53,17.07,17.07,0,0,0,.6-4.49" transform="translate(381.43 28.27)"/><path id="Fill-23" class="cls-4" d="M-116.78,191.35h-173.1a2,2,0,0,1-2.05-2h177.2a2,2,0,0,1-2,2" transform="translate(381.43 28.27)"/><polygon id="Fill-24" class="cls-2" points="0 216.56 18.98 216.56 18.98 168.47 0 168.47 0 216.56"/><polygon id="Fill-25" class="cls-2" points="3.64 219.61 97.24 219.61 97.24 216.56 3.64 216.56 3.64 219.61"/><polygon id="Fill-26" class="cls-3" points="18.98 216.56 100.89 216.56 100.89 168.47 18.98 168.47 18.98 216.56"/><polygon id="Fill-27" class="cls-2" points="26.44 190.16 93.43 190.16 93.43 174.4 26.44 174.4 26.44 190.16"/><polygon id="Fill-28" class="cls-2" points="26.44 210.65 93.43 210.65 93.43 194.87 26.44 194.87 26.44 210.65"/><path id="Fill-29" class="cls-3" d="M-313.2,147.59h-16.58a1.08,1.08,0,0,1-1.08-1.08,1.08,1.08,0,0,1,1.08-1.08h16.58a1.09,1.09,0,0,1,1.08,1.08,1.08,1.08,0,0,1-1.08,1.08" transform="translate(381.43 28.27)"/><path id="Fill-30" class="cls-3" d="M-313.2,168.07h-16.58a1.08,1.08,0,0,1-1.08-1.08,1.08,1.08,0,0,1,1.08-1.08h16.58a1.09,1.09,0,0,1,1.08,1.08,1.08,1.08,0,0,1-1.08,1.08" transform="translate(381.43 28.27)"/><polygon id="Fill-31" class="cls-1" points="74.5 98.59 208.06 98.59 208.06 2.6 74.5 2.6 74.5 98.59"/><polygon id="Fill-32" class="cls-3" points="75.55 98.59 210.3 98.59 210.3 2.6 75.55 2.6 75.55 98.59"/><polygon id="Fill-33" class="cls-1" points="74.5 100.75 208.06 100.75 208.06 98.59 74.5 98.59 74.5 100.75"/><polygon id="Fill-34" class="cls-3" points="90.67 100.75 220.53 100.75 220.53 98.59 90.67 98.59 90.67 100.75"/><polygon id="Fill-35" class="cls-5" points="78.68 94.52 207.17 94.52 207.17 6.67 78.68 6.67 78.68 94.52"/><polygon id="Fill-36" class="cls-6" points="113.65 94.52 132.03 6.67 155.49 6.67 137.11 94.52 113.65 94.52"/><polygon id="Fill-37" class="cls-6" points="143.75 94.52 162.13 6.67 173.02 6.67 154.63 94.52 143.75 94.52"/><polygon id="Fill-38" class="cls-1" points="206.77 85.33 207.17 85.33 207.17 6.12 206.77 6.12 206.77 85.33"/><path id="Fill-39" class="cls-1" d="M-309.28-25.81V8.37h9A50.88,50.88,0,0,0-280.31-24a3.63,3.63,0,0,0-3.57-4.24h-22.94a2.46,2.46,0,0,0-2.46,2.46" transform="translate(381.43 28.27)"/><path id="Fill-40" class="cls-1" d="M-309.28,63.16v-52h9s5.2,10.5,10.38,22.58a21.13,21.13,0,0,1-19.42,29.45" transform="translate(381.43 28.27)"/><path id="Fill-41" class="cls-3" d="M-300.5,11.13h-8.44a.91.91,0,0,1-.91-.91V9.28a.91.91,0,0,1,.91-.91h8.44a.9.9,0,0,1,.9.91v.94a.9.9,0,0,1-.9.91" transform="translate(381.43 28.27)"/><path id="Fill-42" class="cls-1" d="M-168.57-25.81V8.37h-9A50.89,50.89,0,0,1-197.53-24,3.62,3.62,0,0,1-194-28.27H-171a2.46,2.46,0,0,1,2.46,2.46" transform="translate(381.43 28.27)"/><path id="Fill-43" class="cls-1" d="M-168.57,63.16v-52h-9S-182.8,21.63-188,33.71a21.12,21.12,0,0,0,19.41,29.45" transform="translate(381.43 28.27)"/><path id="Fill-44" class="cls-3" d="M-177.34,11.13h8.44a.9.9,0,0,0,.9-.91V9.28a.9.9,0,0,0-.9-.91h-8.44a.91.91,0,0,0-.91.91v.94a.91.91,0,0,0,.91.91" transform="translate(381.43 28.27)"/><polygon id="Fill-45" class="cls-1" points="233.36 79.82 277.71 79.82 277.71 13.53 233.36 13.53 233.36 79.82"/><polygon id="Fill-46" class="cls-3" points="234.5 79.82 284.13 79.82 284.13 13.53 234.5 13.53 234.5 79.82"/><polygon id="Fill-47" class="cls-6" points="239.62 74.69 279.01 74.69 279.01 18.66 239.62 18.66 239.62 74.69"/><path id="Fill-48" class="cls-1" d="M-125.89,23.78V20.59A7.56,7.56,0,0,1-118.34,13v3.19a7.55,7.55,0,0,1-7.55,7.56" transform="translate(381.43 28.27)"/><path id="Fill-49" class="cls-1" d="M-125.89,38.89V35.7a7.55,7.55,0,0,1,7.55-7.56v3.18a7.56,7.56,0,0,1-7.55,7.57" transform="translate(381.43 28.27)"/><path id="Fill-50" class="cls-1" d="M-125.89,8.68V5.49a7.55,7.55,0,0,1,7.55-7.56V1.12a7.56,7.56,0,0,1-7.55,7.56" transform="translate(381.43 28.27)"/><path id="Fill-51" class="cls-7" d="M-351,127.45c1.79-18.58,3.4-70.5,2.35-79.82l-2.49-1.81s.77,33.9-.57,62.37-.19,15-.75,19.26Z" transform="translate(381.43 28.27)"/><path id="Fill-52" class="cls-8" d="M-344.06,90.48c5-3.93,15.24-6.73,25.67-6.72,4.09,0-12.46,4.58-19.34,9.63-5.35,3.92-11.37,10.51-13.42,14.17,1.32-7.7,2.08-13.14,7.09-17.08" transform="translate(381.43 28.27)"/><path id="Fill-53" class="cls-8" d="M-354,96.3c-4.16-4.1-13.77-7.25-24.16-7.6-4.08-.14,11.45,5,17.24,10.27,4.5,4.1,9.11,10.88,10.38,14.6.3-7.72.7-13.17-3.46-17.27" transform="translate(381.43 28.27)"/><path id="Fill-54" class="cls-7" d="M-343.84,62.72c4.24-3.33,12.91-5.7,21.74-5.69,3.46,0-10.55,3.88-16.38,8.15-4.52,3.32-9.63,8.9-11.36,12,1.12-6.52,1.76-11.13,6-14.46" transform="translate(381.43 28.27)"/><path id="Fill-55" class="cls-7" d="M-352.25,67.65c-3.52-3.47-11.65-6.14-20.45-6.44-3.45-.12,9.69,4.23,14.59,8.7,3.81,3.47,7.72,9.21,8.79,12.36.26-6.54.6-11.15-2.93-14.62" transform="translate(381.43 28.27)"/><path id="Fill-56" class="cls-7" d="M-350.2,42.26c-2.51-2.83-8.58-5.24-15.29-5.86-2.63-.24,7.18,3.69,10.69,7.34,2.72,2.83,5.4,7.42,6.05,9.89.55-5,1.05-8.55-1.45-11.37" transform="translate(381.43 28.27)"/><path id="Fill-57" class="cls-7" d="M-348.56,44.14c1.81-2.44,6.11-4.56,10.83-5.15,1.85-.23-5.1,3.22-7.63,6.37a27,27,0,0,0-4.44,8.51c-.29-4.28-.57-7.3,1.24-9.73" transform="translate(381.43 28.27)"/><path id="Fill-58" class="cls-2" d="M-351.33,140.21h0A10.36,10.36,0,0,0-341,130.44l.92-8.73h-22.51l.91,8.73a10.37,10.37,0,0,0,10.34,9.77" transform="translate(381.43 28.27)"/><polygon id="Fill-59" class="cls-2" points="17.39 153.59 42.81 153.59 43.54 146.99 16.66 146.99 17.39 153.59"/><path id="Fill-61" class="cls-9" d="M-100.52,215.38c0,4.45-61.64,8.05-137.67,8.05s-137.66-3.6-137.66-8.05,61.64-8,137.66-8,137.67,3.6,137.67,8Z" transform="translate(381.43 28.27)"/><polygon id="Fill-63" class="cls-10" points="143.82 231.89 139.01 229.98 142.13 218.33 146.94 220.24 143.82 231.89"/><polygon id="Fill-65" class="cls-10" points="192.13 237.24 186.96 237.24 182.92 225.25 188.1 225.25 192.13 237.24"/><path id="Fill-67" class="cls-11" d="M-195.16,208.37h6.3a.44.44,0,0,1,.44.35l1,4.6a.76.76,0,0,1-.76.92c-2,0-3.51-.15-6.07-.15-1.57,0-6.31.16-8.48.16s-2.46-2.15-1.57-2.34c4-.87,7-2.08,8.27-3.22a1.24,1.24,0,0,1,.84-.32" transform="translate(381.43 28.27)"/><path id="Fill-69" class="cls-11" d="M-242.17,201.17l5.26,2.08a.44.44,0,0,1,.27.49l-.74,4.66a.75.75,0,0,1-1,.58c-1.88-.78-4.57-2-7-2.92-2.78-1.11-5.25-1.91-8.51-3.2-2-.78-1.73-3-.84-2.85,4.09.67,7.2,1.8,11.25,1.08a2.39,2.39,0,0,1,1.3.08" transform="translate(381.43 28.27)"/><path id="Fill-71" class="cls-10" d="M-206.28,53.23c-.48.39-.86.68-1.29,1s-.84.6-1.26.89q-1.28.87-2.58,1.68a47.32,47.32,0,0,1-5.52,2.89,31.87,31.87,0,0,1-6.14,2.06,19,19,0,0,1-7.06.36A14.58,14.58,0,0,1-232,61.7,6.26,6.26,0,0,1-234.75,60a12.33,12.33,0,0,1-2.14-3.29,34,34,0,0,1-2.05-6A71.81,71.81,0,0,1-240.85,39l3.82-.73c1.18,3.58,2.42,7.2,3.79,10.6A36.41,36.41,0,0,0-231,53.59,5.72,5.72,0,0,0-229.85,55c.1.09.13,0-.31-.17.25,0,.6.1.92.11a13.33,13.33,0,0,0,4.37-.55,29.67,29.67,0,0,0,4.69-1.83,49.06,49.06,0,0,0,4.64-2.55c.76-.47,1.52-.95,2.26-1.46l1.09-.76c.36-.24.75-.53,1-.73Z" transform="translate(381.43 28.27)"/><path id="Fill-73" class="cls-12" d="M-203.06,52c-1.25,4.79-16.75,10.15-16.75,10.15l-4.77-10.77s6.29-3.32,12.12-6c3.91-1.77,10.77,1.36,9.4,6.57" transform="translate(381.43 28.27)"/><path id="Fill-75" class="cls-10" d="M-237,39.13l.13-4.62-5.61,1.67a5.54,5.54,0,0,0,2.16,4Z" transform="translate(381.43 28.27)"/><polygon id="Fill-77" class="cls-10" points="144.82 59.56 139.43 61.42 138.94 64.45 144.55 62.78 144.82 59.56"/><path id="Fill-79" class="cls-13" d="M-237.63,42.25l5.32-1.18a.6.6,0,0,0,.43-.81l-4.63-12.33a.83.83,0,0,0-.92-.51l-5.32,1.18a.59.59,0,0,0-.43.8l4.63,12.34a.83.83,0,0,0,.92.51" transform="translate(381.43 28.27)"/><path id="Fill-81" class="cls-14" d="M-237,42.1l5.32-1.18a.59.59,0,0,0,.43-.8l-4.63-12.34a.81.81,0,0,0-.92-.5l-5.31,1.17a.59.59,0,0,0-.43.81l4.62,12.34a.83.83,0,0,0,.92.5" transform="translate(381.43 28.27)"/><polygon id="Fill-83" class="cls-15" points="139.06 57.95 141.14 63.5 141.33 64.01 142.27 66.5 142.47 67.03 143.21 69.02 149.88 67.55 149.7 67.06 149.5 66.54 147.7 61.74 147.14 60.24 145.73 56.48 143.53 56.96 142.96 57.09 139.94 57.76 139.47 57.86 139.06 57.95"/><path id="Fill-85" class="cls-14" d="M-238,32l-.56,4.57a.54.54,0,0,0,.65.59l3.59-.83a.53.53,0,0,0,.29-.85l-3-3.75A.53.53,0,0,0-238,32" transform="translate(381.43 28.27)"/><path id="Fill-87" class="cls-6" d="M-236.1,35.49c.08.25,0,.48-.2.52s-.39-.12-.47-.37,0-.48.2-.53a.46.46,0,0,1,.47.38" transform="translate(381.43 28.27)"/><path id="Fill-89" class="cls-6" d="M-236.53,34.69l-.3.07a.16.16,0,0,1-.16-.12l-.6-1.64c0-.09,0-.18.07-.19l.51-.12a.16.16,0,0,1,.16.14l.4,1.69a.15.15,0,0,1-.08.17" transform="translate(381.43 28.27)"/><polygon id="Fill-91" class="cls-16" points="142.13 218.33 140.52 224.34 145.33 226.25 146.95 220.24 142.13 218.33"/><polygon id="Fill-93" class="cls-16" points="188.1 225.25 182.93 225.25 185 231.43 190.18 231.43 188.1 225.25"/><path id="Fill-95" class="cls-17" d="M-182.15,49.8a115.4,115.4,0,0,0-5.11,16.57c-.91,3.94-1.62,7.71-2.17,11.14-1.31,8-1.8,14.23-2.26,16.29l-27.24-4.88c-.56-29.68,8.21-44,8.21-44a53.14,53.14,0,0,1,6.65-.1c.47,0,.94.05,1.43.1A102,102,0,0,1-191.06,47c.72.17,1.45.36,2.16.55,3.61,1,6.75,2.25,6.75,2.25" transform="translate(381.43 28.27)"/><path id="Fill-97" class="cls-12" d="M-189.89,56.45a21.87,21.87,0,0,0,2.11,12.27c.16-.78.34-1.56.52-2.35.69-3,1.5-6,2.47-9.07Z" transform="translate(381.43 28.27)"/><path id="Fill-99" class="cls-10" d="M-189.87,33.75c-1.4,3.6-3.36,10.3-1.2,13.25a11.7,11.7,0,0,1-9.56,2c-3.19-.64-3-2.91-2-4,4.33-.24,4.77-3.34,4.57-6.37Z" transform="translate(381.43 28.27)"/><path id="Fill-101" class="cls-16" d="M-193.21,35.71l-4.86,2.84a10.72,10.72,0,0,1,0,2.12c1.63,0,4.12-1.3,4.59-2.93a5.94,5.94,0,0,0,.28-2" transform="translate(381.43 28.27)"/><path id="Fill-103" class="cls-18" d="M-202.48,21.56c-1.14,2.3-1.65,9.46,1.55,8.35s3-6.56,3-6.56-1.93-7.2-4.59-1.79" transform="translate(381.43 28.27)"/><path id="Fill-105" class="cls-10" d="M-188.42,28.22c-1.22,5-1.68,8-4.69,10.11-4.53,3.21-10.34-.22-10.64-5.47-.27-4.73,1.76-12.1,7.06-13.22a7,7,0,0,1,8.27,8.58" transform="translate(381.43 28.27)"/><path id="Fill-107" class="cls-18" d="M-191,24.15c-2.92,1.77-2.42,7.48,1.6,9s4.9-1.44,4.25-1.74c1.39-.3,6.87-2.75,4.69-7.2-1.32-2.71-5.35-2.26-5.35-2.26s4.78-4.69-2.73-8.46c-9.17-4.6-10.56,3.85-10.56,3.85s-5.9-.66-5.4,3.28c.66,5.21,6.2,1,6.2,1s.34,4.59,7.3,2.5" transform="translate(381.43 28.27)"/><path id="Fill-109" class="cls-18" d="M-198.75,19.29a.26.26,0,0,1-.25-.18c-.06-.16-1.32-3.89.61-6.33,1.25-1.58,3.53-2.22,6.8-1.89a.27.27,0,0,1,.23.29.25.25,0,0,1-.29.24c-3.06-.31-5.19.26-6.32,1.69-1.75,2.2-.54,5.79-.53,5.83a.27.27,0,0,1-.17.34h-.08" transform="translate(381.43 28.27)"/><path id="Fill-111" class="cls-10" d="M-187.14,34.2a4.88,4.88,0,0,1-3.38,1.58c-1.71.07-2.17-1.56-1.36-3s2.49-2.82,4-2.22a2.2,2.2,0,0,1,.7,3.61" transform="translate(381.43 28.27)"/><path id="Fill-113" class="cls-19" d="M-242.27,194.25l8.15,3.22s9.49-31.6,12.73-47.4A169.88,169.88,0,0,1-216,131.58c3-8.9,6.65-18.49,9.58-26,3.09-7.89,5.39-13.47,5.39-13.47l-17.9-3.21s-15.56,41.49-17.79,57.13c-2.32,16.26-5.55,48.2-5.55,48.2" transform="translate(381.43 28.27)"/><path id="Fill-115" class="cls-20" d="M-216,131.58c3-8.9,6.65-18.49,9.58-26l-1.43-4.24c-5.05,4.84-8,21.18-8.15,30.22" transform="translate(381.43 28.27)"/><path id="Fill-117" class="cls-19" d="M-209.27,90.65s-2.83,44.27-2.27,59.43c.61,16.6,12.68,51.89,12.68,51.89h9.48s-6.14-31.75-7.37-47.9c-1.41-18.39,5.05-60.26,5.05-60.26Z" transform="translate(381.43 28.27)"/><polygon id="Fill-119" class="cls-14" points="181.44 230.44 192.59 230.44 192.59 227.1 180.12 226.89 181.44 230.44"/><polygon id="Fill-121" class="cls-14" points="138.06 222.3 147.77 226.14 149.01 223 138.22 218.54 138.06 222.3"/><path id="Fill-123" class="cls-18" d="M-196.33,28.26c-.07.41-.35.71-.62.66s-.42-.42-.35-.83.35-.71.62-.66.43.42.35.83" transform="translate(381.43 28.27)"/><path id="Fill-125" class="cls-18" d="M-201,27.43c-.07.41-.35.7-.62.65s-.42-.42-.35-.83.35-.7.62-.65.42.42.35.83" transform="translate(381.43 28.27)"/><path id="Fill-127" class="cls-21" d="M-199.53,27.9a15,15,0,0,1-2.59,3.16,2.38,2.38,0,0,0,1.89.72Z" transform="translate(381.43 28.27)"/><path id="Fill-129" class="cls-18" d="M-197.28,34.7a.12.12,0,0,1-.12-.1.12.12,0,0,1,.1-.14c.69-.14.73-.28.73-.28l0,0s-.32-.45-1.91-.52a.12.12,0,0,1-.12-.13.13.13,0,0,1,.13-.11h0c1.61.07,2,.51,2.1.62a.28.28,0,0,1,.07.23c0,.2-.34.35-.92.47h0" transform="translate(381.43 28.27)"/><path id="Fill-131" class="cls-18" d="M-194.62,27a.23.23,0,0,1-.21-.14,2,2,0,0,0-1.41-1.08.24.24,0,0,1-.21-.27.24.24,0,0,1,.27-.22,2.45,2.45,0,0,1,1.78,1.35.24.24,0,0,1-.11.33.2.2,0,0,1-.11,0" transform="translate(381.43 28.27)"/><path id="Fill-133" class="cls-18" d="M-202.67,25.47a.23.23,0,0,1-.15,0,.24.24,0,0,1-.05-.34,2.44,2.44,0,0,1,2-1,.25.25,0,0,1,.23.26.22.22,0,0,1-.26.23,2,2,0,0,0-1.55.85.25.25,0,0,1-.2.1" transform="translate(381.43 28.27)"/><path id="Fill-135" class="cls-14" d="M-197.64,208.2a.35.35,0,0,0-.16,0,.17.17,0,0,0-.08.15.48.48,0,0,0,.17.44,2.45,2.45,0,0,0,1.83.09,5.08,5.08,0,0,0-1.76-.71m.77,1.07a1.56,1.56,0,0,1-1-.26.76.76,0,0,1-.25-.65.4.4,0,0,1,.21-.35c.57-.29,2.24.74,2.43.85a.13.13,0,0,1,0,.13.13.13,0,0,1-.09.1,6.49,6.49,0,0,1-1.35.18" transform="translate(381.43 28.27)"/><path id="Fill-137" class="cls-14" d="M-196.59,207h-.06c-.16,0-.17.09-.18.12-.06.34.6,1.2,1.13,1.6a3,3,0,0,0-.61-1.62.45.45,0,0,0-.28-.11m1,2.1h-.06c-.53-.3-1.57-1.43-1.46-2a.41.41,0,0,1,.39-.32.67.67,0,0,1,.52.16c.61.49.73,2,.73,2.05a.1.1,0,0,1,0,.11l-.07,0" transform="translate(381.43 28.27)"/><path id="Fill-139" class="cls-14" d="M-245.17,199.83h0a.14.14,0,0,0-.12.09.45.45,0,0,0,0,.42c.19.38,1,.74,2.09,1-.62-.67-1.53-1.5-1.93-1.5m2.27,1.82h0c-.84-.16-2.29-.51-2.63-1.19a.69.69,0,0,1,0-.64.41.41,0,0,1,.31-.23h.06c.74,0,2.2,1.66,2.37,1.86a.12.12,0,0,1,0,.14.11.11,0,0,1-.11.06" transform="translate(381.43 28.27)"/><path id="Fill-141" class="cls-14" d="M-243.56,199.18c-.09,0-.12,0-.13.06-.18.31.28,1.43.73,2a2.86,2.86,0,0,0,0-1.73.64.64,0,0,0-.41-.33.36.36,0,0,0-.14,0m.66,2.47a.12.12,0,0,1-.09,0c-.47-.49-1.21-2-.91-2.5a.45.45,0,0,1,.55-.15.92.92,0,0,1,.56.45,3.49,3.49,0,0,1,0,2.15.12.12,0,0,1-.09.08h0" transform="translate(381.43 28.27)"/><path id="Fill-143" class="cls-10" d="M-182,52.21c.69.81,1.28,1.53,1.87,2.31s1.17,1.55,1.74,2.33c1.12,1.58,2.19,3.2,3.19,4.87a57.35,57.35,0,0,1,2.81,5.19l.64,1.36.57,1.4c.2.46.37,1,.54,1.43l.26.73.06.18.1.3c.07.23.12.44.17.66a10.61,10.61,0,0,1-.08,4,22.65,22.65,0,0,1-.83,3.13,44.41,44.41,0,0,1-2.32,5.48,73,73,0,0,1-5.94,9.84l-3.37-1.93c1.39-3.35,2.74-6.8,3.9-10.18a51.53,51.53,0,0,0,1.45-5,16.43,16.43,0,0,0,.38-2.32,4.15,4.15,0,0,0-.07-1.52s0,0,0,0,0,0,0,0l-.07-.14-.25-.57c-.18-.38-.34-.76-.54-1.14l-.58-1.14-.62-1.14c-.85-1.5-1.77-3-2.74-4.48s-2-2.93-3-4.37-2.16-2.9-3.18-4.21Z" transform="translate(381.43 28.27)"/><path id="Fill-145" class="cls-22" d="M-183.55,49.37c4.89.74,11.39,11.79,11.39,11.79l-9.19,10a95.48,95.48,0,0,1-8-12.18c-3.2-6.19-.14-10.51,5.78-9.62" transform="translate(381.43 28.27)"/><path id="Fill-147" class="cls-10" d="M-181.65,92.54l-4.53,2.67,5.43,3.77s3.35-3.12,1.89-5.08Z" transform="translate(381.43 28.27)"/><polygon id="Fill-149" class="cls-10" points="193.65 127.49 198.28 130.4 200.68 127.25 195.25 123.48 193.65 127.49"/><path id="Fill-151" class="cls-14" d="M-233.83,28.51h-.71A2.5,2.5,0,0,0-237,26v-.71a3.2,3.2,0,0,1,3.2,3.2" transform="translate(381.43 28.27)"/><path id="Fill-153" class="cls-14" d="M-232.41,28.51h-.71A3.91,3.91,0,0,0-237,24.6v-.71a4.62,4.62,0,0,1,4.62,4.62" transform="translate(381.43 28.27)"/><path id="Fill-155" class="cls-14" d="M-231,28.51h-.71A5.33,5.33,0,0,0-237,23.18v-.71a6,6,0,0,1,6,6" transform="translate(381.43 28.27)"/><path id="Fill-157" class="cls-14" d="M-237.54,45.12a3.2,3.2,0,0,1-3.2-3.19h.72a2.48,2.48,0,0,0,2.48,2.48Z" transform="translate(381.43 28.27)"/><path id="Fill-159" class="cls-14" d="M-237.54,46.55a4.63,4.63,0,0,1-4.61-4.62h.71a3.91,3.91,0,0,0,3.9,3.91Z" transform="translate(381.43 28.27)"/><path id="Fill-161" class="cls-14" d="M-237.54,48a6,6,0,0,1-6-6h.71a5.33,5.33,0,0,0,5.32,5.33Z" transform="translate(381.43 28.27)"/><path id="Fill-166" class="cls-23" d="M-271.7,69.81h-60.14a9.73,9.73,0,0,1-9.69-9.7V17.16a9.73,9.73,0,0,1,9.69-9.7h60.14a9.73,9.73,0,0,1,9.69,9.7v43a9.73,9.73,0,0,1-9.69,9.7" transform="translate(381.43 28.27)"/><path id="Fill-167" class="cls-23" d="M-342.48,7.25A.71.71,0,0,1-343,7l-5.48-5.49a.7.7,0,0,1,0-1,.71.71,0,0,1,1,0L-342,6a.71.71,0,0,1,0,1,.7.7,0,0,1-.5.21" transform="translate(381.43 28.27)"/><path id="Fill-168" class="cls-23" d="M-339,5.73a.71.71,0,0,1-.7-.57l-1-5.24a.71.71,0,0,1,.57-.83.7.7,0,0,1,.83.56l1,5.24a.71.71,0,0,1-.57.83H-339" transform="translate(381.43 28.27)"/><path id="Fill-169" class="cls-23" d="M-344,10.77h-.14l-5.23-1a.71.71,0,0,1-.57-.83.72.72,0,0,1,.83-.57l5.24,1a.7.7,0,0,1,.56.83.71.71,0,0,1-.69.58" transform="translate(381.43 28.27)"/><polygon id="Fill-170" class="cls-23" points="117.99 64.07 135.42 58.72 117.99 77.21 117.99 64.07"/><path id="Fill-171" class="cls-6" d="M-284.5,49.77H-319a6.92,6.92,0,0,1,2-4.92l.69-.69a6,6,0,0,0,1.75-4.22v-8A12.8,12.8,0,0,1-301.3,19.11a12.63,12.63,0,0,1,3.09.5,9.14,9.14,0,0,0-.6,3.28,9.32,9.32,0,0,0,9.32,9.32l.51,0v7.75a6,6,0,0,0,1.75,4.22l.69.69A7.11,7.11,0,0,1-285,47.11a7.05,7.05,0,0,1,.53,2.66" transform="translate(381.43 28.27)"/><path id="Fill-172" class="cls-6" d="M-294.94,51.64A6.85,6.85,0,0,1-302,58.17a6.92,6.92,0,0,1-6.56-6.53Z" transform="translate(381.43 28.27)"/><path id="Fill-173" class="cls-11" d="M-282.52,22.89a7,7,0,0,1-7,7,7,7,0,0,1-7-7,7,7,0,0,1,7-7,7,7,0,0,1,7,7" transform="translate(381.43 28.27)"/><g class="cls-24"><text class="cls-25" transform="translate(89.33 55.34)">0</text></g></g></g></g></svg>