<svg id="Layer_1" data-name="Layer 1" xmlns="http://www.w3.org/2000/svg" viewBox="0 0 30 30"><defs><style>.cls-1{fill:none;}.cls-2{fill:#555;fill-rule:evenodd;}</style></defs><title>partner_icon</title><g id="Symbols"><g id="Header-Bar"><g id="partner_icon" data-name="partner icon"><rect id="Rectangle-2-Copy-2" class="cls-1" width="30" height="30"/><g id="follower"><g id="Capa_1" data-name="Capa 1"><g id="Group"><path id="Shape" class="cls-2" d="M-137.14-30.08a.4.4,0,0,0-.4.39v8a.92.92,0,0,1-.92.92h-5.08a1.71,1.71,0,0,0-1.55,1l-1.58,3.35-1.58-3.35a1.71,1.71,0,0,0-1.55-1h-5.09a.92.92,0,0,1-.92-.92v-9.87a.4.4,0,0,0-.4-.39.4.4,0,0,0-.39.39v9.87A1.72,1.72,0,0,0-154.89-20h5.09a.93.93,0,0,1,.83.53l1.64,3.47a.71.71,0,0,0,.66.42A.71.71,0,0,0-146-16l1.64-3.47a.93.93,0,0,1,.84-.53h5.08a1.72,1.72,0,0,0,1.72-1.71v-8a.4.4,0,0,0-.4-.39Z" transform="translate(159.63 44.57)"/><path class="cls-2" d="M-156.21-33a.4.4,0,0,0,.4-.4v-2.34a.92.92,0,0,1,.92-.92h10.76a.39.39,0,0,0,.4-.39.4.4,0,0,0-.4-.4h-10.76a1.72,1.72,0,0,0-1.71,1.71v2.34a.4.4,0,0,0,.39.4Z" transform="translate(159.63 44.57)"/><path class="cls-2" d="M-132.71-40.32a.39.39,0,0,0-.55-.09.39.39,0,0,0-.09.55,4.66,4.66,0,0,1,.9,2.77,4.7,4.7,0,0,1-4.69,4.69,4.7,4.7,0,0,1-4.69-4.69,4.69,4.69,0,0,1,4.69-4.69,4.68,4.68,0,0,1,2.37.64.39.39,0,0,0,.54-.14.39.39,0,0,0-.14-.54,5.48,5.48,0,0,0-2.77-.75,5.48,5.48,0,0,0-5.48,5.48,5.49,5.49,0,0,0,5.48,5.48,5.49,5.49,0,0,0,5.48-5.48,5.42,5.42,0,0,0-1.05-3.23Z" transform="translate(159.63 44.57)"/><path class="cls-2" d="M-137.14-34.5a.39.39,0,0,0,.4-.39V-36.7h1.8a.39.39,0,0,0,.4-.39.4.4,0,0,0-.4-.4h-1.8V-39.3a.4.4,0,0,0-.4-.39.4.4,0,0,0-.4.39v1.81h-1.8a.4.4,0,0,0-.4.4.39.39,0,0,0,.4.39h1.8v1.81a.39.39,0,0,0,.4.39Z" transform="translate(159.63 44.57)"/><path class="cls-2" d="M-144.53-29.32h-.26a2.62,2.62,0,0,0,.77-1.86,2.65,2.65,0,0,0-2.65-2.65,2.65,2.65,0,0,0-2.65,2.65,2.66,2.66,0,0,0,.76,1.86h-.26a1.92,1.92,0,0,0-1.92,1.92v3h-1.61a.4.4,0,0,0-.4.4.39.39,0,0,0,.4.39H-141a.39.39,0,0,0,.4-.39.4.4,0,0,0-.4-.4h-1.6v-3a1.93,1.93,0,0,0-1.93-1.92Zm-4-1.86A1.86,1.86,0,0,1-146.67-33a1.86,1.86,0,0,1,1.86,1.86,1.87,1.87,0,0,1-1.86,1.86,1.86,1.86,0,0,1-1.86-1.86Zm-1.42,3.78a1.14,1.14,0,0,1,1.13-1.13h4.29a1.14,1.14,0,0,1,1.14,1.13v3h-6.56Z" transform="translate(159.63 44.57)"/></g></g></g></g></g></g></svg>