<svg id="Layer_1" data-name="Layer 1" xmlns="http://www.w3.org/2000/svg" viewBox="0 0 30 30"><defs><style>.cls-1{fill:none;}.cls-2{fill:#555;fill-rule:evenodd;}</style></defs><title>tasks_icon</title><g id="Symbols"><g id="Header-Bar"><g id="tasks_icon" data-name="tasks icon"><rect id="Rectangle-2" class="cls-1" width="30" height="30"/><g id="Group-3"><path id="Rectangle-3" class="cls-2" d="M-231.5-19H-208a.76.76,0,0,1,.75.75h0a.76.76,0,0,1-.75.75h-23.5a.76.76,0,0,1-.75-.75h0A.76.76,0,0,1-231.5-19Z" transform="translate(234.25 24)"/><path id="Rectangle-3-Copy" class="cls-2" d="M-231.5-13H-218a.76.76,0,0,1,.75.75h0a.76.76,0,0,1-.75.75h-13.5a.76.76,0,0,1-.75-.75h0A.76.76,0,0,1-231.5-13Z" transform="translate(234.25 24)"/><g id="Group-2"><path id="Rectangle-3-Copy-3" class="cls-2" d="M-231.5-1H-215a.76.76,0,0,1,.75.75h0A.76.76,0,0,1-215,.5h-16.5a.76.76,0,0,1-.75-.75h0A.76.76,0,0,1-231.5-1Z" transform="translate(234.25 24)"/><path id="Rectangle-3-Copy-4" class="cls-2" d="M-211.5-1h3.5a.76.76,0,0,1,.75.75h0A.76.76,0,0,1-208,.5h-3.5a.76.76,0,0,1-.75-.75h0A.76.76,0,0,1-211.5-1Z" transform="translate(234.25 24)"/></g><path id="Rectangle-3-Copy-2" class="cls-2" d="M-231.5-7H-208a.76.76,0,0,1,.75.75h0a.76.76,0,0,1-.75.75h-23.5a.76.76,0,0,1-.75-.75h0A.76.76,0,0,1-231.5-7Z" transform="translate(234.25 24)"/></g></g></g></g></svg>