<svg id="Layer_1" data-name="Layer 1" xmlns="http://www.w3.org/2000/svg" xmlns:xlink="http://www.w3.org/1999/xlink" viewBox="0 0 114.36 28.36"><defs><style>.cls-1,.cls-11{fill:none;}.cls-1{clip-rule:evenodd;}.cls-2{clip-path:url(#clip-path);}.cls-3{fill:#cbcbcb;}.cls-4{clip-path:url(#clip-path-2);}.cls-5{clip-path:url(#clip-path-3);}.cls-6{clip-path:url(#clip-path-4);}.cls-7{clip-path:url(#clip-path-5);}.cls-8{clip-path:url(#clip-path-6);}.cls-9{clip-path:url(#clip-path-7);}.cls-10{clip-path:url(#clip-path-8);}.cls-11{stroke:#cbcbcb;stroke-linecap:square;stroke-miterlimit:10;}.cls-12{clip-path:url(#clip-path-9);}.cls-13{clip-path:url(#clip-path-10);}</style><clipPath id="clip-path" transform="translate(-208.86 -481.86)"><path class="cls-1" d="M273.16,499.86c-.45-.94-2.07-2.25-3.63-3.51-.87-.71-1.69-1.37-2.21-1.9a.49.49,0,0,0-.5-.11c-.33.12-.53.21-.68.28a1.67,1.67,0,0,1-.65.18.47.47,0,0,0-.35.21,1.45,1.45,0,0,1-1.84.76c-.15,0-.18-.11-.2-.17a3.22,3.22,0,0,1,1.06-2.06c1.56-1.55,2.36-1.94,4.06-1.19,1.92.87,3.85,1.54,3.87,1.55a.48.48,0,0,0,.61-.3.48.48,0,0,0-.29-.61s-1.91-.67-3.8-1.51c-2.2-1-3.4-.34-5.12,1.39-.66.65-1.55,2-1.32,2.95a1.19,1.19,0,0,0,.82.86,2.4,2.4,0,0,0,2.82-1,2.64,2.64,0,0,0,.72-.23l.33-.14c.55.51,1.29,1.11,2.07,1.74,1.41,1.14,3,2.43,3.37,3.18a.57.57,0,0,1-.15.72.55.55,0,0,1-.59.12.45.45,0,0,0-.51,0,.48.48,0,0,0-.23.46.58.58,0,0,1-.37.54.73.73,0,0,1-.75,0,.48.48,0,0,0-.5-.1.45.45,0,0,0-.3.4.91.91,0,0,1-.57.74.51.51,0,0,1-.55-.09.5.5,0,0,0-.44-.11.47.47,0,0,0-.33.3c0,.05-.06.17-.51.17a2.7,2.7,0,0,1-1.17-.41c-.34-.22-2.45-1.79-4.27-3.32a15.33,15.33,0,0,1-1.09-1.08c-.35-.36-.67-.69-.83-.83a.47.47,0,0,0-.67.06.47.47,0,0,0,0,.67c.15.13.44.43.76.76s.87.91,1.16,1.16c1.79,1.49,3.93,3.11,4.36,3.39a3.68,3.68,0,0,0,1.7.55,1.61,1.61,0,0,0,1.09-.32,1.42,1.42,0,0,0,1.09,0,1.89,1.89,0,0,0,1-.92,1.86,1.86,0,0,0,1.21-.17,1.63,1.63,0,0,0,.8-.84,1.57,1.57,0,0,0,1.1-.39A1.52,1.52,0,0,0,273.16,499.86Z"/></clipPath><clipPath id="clip-path-2" transform="translate(-208.86 -481.86)"><path class="cls-1" d="M264.58,491.92h-4.31a.48.48,0,1,0,0,.95h4.31a.48.48,0,1,0,0-.95Z"/></clipPath><clipPath id="clip-path-3" transform="translate(-208.86 -481.86)"><path class="cls-1" d="M274.56,498.84a.47.47,0,0,0-.66-.13l-1.4.94a.47.47,0,0,0-.13.66.46.46,0,0,0,.4.21.42.42,0,0,0,.26-.08l1.4-.94A.47.47,0,0,0,274.56,498.84Z"/></clipPath><clipPath id="clip-path-4" transform="translate(-208.86 -481.86)"><path class="cls-1" d="M271.59,501.12c-.34-.27-1.88-1.84-2.83-2.83a.47.47,0,0,0-.67,0,.48.48,0,0,0,0,.68c.25.25,2.42,2.52,2.93,2.92a.45.45,0,0,0,.29.1.48.48,0,0,0,.3-.86Z"/></clipPath><clipPath id="clip-path-5" transform="translate(-208.86 -481.86)"><path class="cls-1" d="M269.67,502.08c-.57-.45-2-2-2.34-2.34a.47.47,0,0,0-.67,0,.48.48,0,0,0,0,.68,34.49,34.49,0,0,0,2.45,2.44.46.46,0,0,0,.29.11.48.48,0,0,0,.3-.86Z"/></clipPath><clipPath id="clip-path-6" transform="translate(-208.86 -481.86)"><path class="cls-1" d="M267.77,503.05c-.69-.58-2.08-2.06-2.36-2.36a.48.48,0,0,0-.7.66c.4.42,1.73,1.84,2.44,2.43a.47.47,0,0,0,.31.12.51.51,0,0,0,.37-.17A.49.49,0,0,0,267.77,503.05Z"/></clipPath><clipPath id="clip-path-7" transform="translate(-208.86 -481.86)"><path class="cls-1" d="M258,498.62h-2V491a14.54,14.54,0,0,1,3.8.68A49,49,0,0,1,258,498.62Zm2.6-7.53c-.82-.78-4.11-1-5.09-1.09a.47.47,0,0,0-.36.13.47.47,0,0,0-.15.35v8.62a.47.47,0,0,0,.48.48h2.87a.47.47,0,0,0,.46-.33,50.31,50.31,0,0,0,1.94-7.77A.47.47,0,0,0,260.6,491.09Z"/></clipPath><clipPath id="clip-path-8" transform="translate(-208.86 -481.86)"><path class="cls-1" d="M277,499.58h-2c-.45-1.48-1.79-5.33-2.54-6.93a15.72,15.72,0,0,1,4.58-.73Zm.48-8.62a15.05,15.05,0,0,0-5.94,1,.5.5,0,0,0-.25.3.49.49,0,0,0,.05.39,62.84,62.84,0,0,1,2.8,7.54.48.48,0,0,0,.47.35h2.87a.47.47,0,0,0,.48-.48v-8.62A.47.47,0,0,0,277.52,491Z"/></clipPath><clipPath id="clip-path-9" transform="translate(-208.86 -481.86)"><polygon class="cls-1" points="223 488.93 223 503.07 215.93 496 223 488.93"/></clipPath><clipPath id="clip-path-10" transform="translate(-208.86 -481.86)"><polygon class="cls-1" points="309.07 489 309.07 503.14 316.14 496.07 309.07 489"/></clipPath></defs><title>mapping_arrow</title><g class="cls-2"><rect class="cls-3" x="44.5" y="4.16" width="24.97" height="23.36"/></g><g class="cls-4"><rect class="cls-3" x="45.93" y="5.06" width="15.27" height="10.96"/></g><g class="cls-5"><rect class="cls-3" x="58.43" y="11.77" width="12.36" height="11.9"/></g><g class="cls-6"><rect class="cls-3" x="54.08" y="11.29" width="13.83" height="13.83"/></g><g class="cls-7"><rect class="cls-3" x="52.64" y="12.73" width="13.35" height="13.35"/></g><g class="cls-8"><rect class="cls-3" x="50.73" y="13.68" width="13.35" height="13.36"/></g><g class="cls-9"><rect class="cls-3" x="41.14" y="3.14" width="15.75" height="19.58"/></g><g class="cls-10"><rect class="cls-3" x="57.45" y="4.1" width="16.69" height="19.58"/></g><line class="cls-11" x1="14.64" y1="14.64" x2="46.64" y2="14.64"/><g class="cls-12"><rect class="cls-3" x="213" y="486" width="20" height="20" transform="translate(-494.27 -178.9) rotate(-45)"/></g><line class="cls-11" x1="68.64" y1="14.64" x2="99.64" y2="14.64"/><g class="cls-13"><rect class="cls-3" x="299.07" y="486.07" width="20" height="20" transform="translate(-469.11 -118.02) rotate(-45)"/></g></svg>