<?xml version="1.0" encoding="UTF-8"?>
<svg width="120px" height="42px" viewBox="0 0 120 42" version="1.1" xmlns="http://www.w3.org/2000/svg" xmlns:xlink="http://www.w3.org/1999/xlink">
    <!-- Generator: Sketch 40.3 (33839) - http://www.bohemiancoding.com/sketch -->
    <title>Group 2</title>
    <desc>Created with Sketch.</desc>
    <defs></defs>
    <g id="signup-login-&amp;-email" stroke="none" stroke-width="1" fill="none" fill-rule="evenodd">
        <g id="join-us" transform="translate(-960.000000, -441.000000)">
            <g id="Group-2" transform="translate(961.000000, 442.000000)">
                <rect id="Rectangle-4-Copy-20" stroke="#5B5B5B" fill="#5A5A5A" x="0" y="0" width="118" height="40" rx="4"></rect>
                <path d="M39.9680476,23.9087992 L38.5357641,23.9087992 L38.5357641,26.3746054 L36.0780959,26.3746054 L34.7949219,23.5 L31,23.9087992 L31,22.1591348 L34.7949219,14 L38.5357641,14.4768871 L38.5357641,21.9556854 L39.9680476,21.9556854 L39.9680476,23.9087992 Z M36.0780959,21.9556854 L36.0780959,19.9374678 C36.0780959,19.6010965 36.091659,19.112823 36.1187858,18.4726325 C36.1459125,17.832442 36.1676135,17.4608115 36.1838896,17.35773 L36.1187858,17.35773 C35.9180481,17.8026081 35.6766239,18.2366291 35.3945061,18.6598059 L33.213529,21.9556854 L36.0780959,21.9556854 Z M42.0757829,26.3746054 L44.7949219,18 L40.6760513,16.6090364 L40.6760513,14.4931631 L49.2127862,14.4931631 L49.2127862,16.0719301 C49.2127862,16.0719301 48.5386702,19.7973141 47.7949219,21.5 C47.0385702,23.2315392 44.7124865,26.3746054 44.7124865,26.3746054 L42.0757829,26.3746054 Z M57.1961389,24.8039764 C56.2087264,25.9595745 55.2968735,28 53.2949219,28 C52.5896273,28 51.4724322,26.4993881 51.1089342,26.4234332 L51.1089342,24.4052156 C51.5646631,24.5191479 52.0420861,24.5761131 52.5412177,24.5761131 C53.3821459,24.5761131 54.0738668,24.4526884 54.6164011,24.2058353 C55.1589354,23.9589822 55.573968,23.5710759 55.8615112,23.042105 C56.1490543,22.513134 56.3145248,21.7847926 56.3579276,20.8570589 L56.2602719,20.8570589 C55.945602,21.3670412 55.5821094,21.7251084 55.1697833,21.9312715 C54.7574573,22.1374345 54.2420574,22.2405145 53.6235682,22.2405145 C52.5873277,22.2405145 51.7708258,21.9082172 51.174038,21.2436127 C50.5772503,20.5790081 50.2788609,19.6553573 50.2788609,18.4726325 C50.2788609,17.1976768 50.6409971,16.1899344 51.3652804,15.4493751 C52.0895637,14.7088157 53.0756051,14.3385416 54.323434,14.3385416 C55.2023396,14.3385416 55.9713705,14.5447015 56.6305497,14.9570276 C57.2897289,15.3693537 57.7956346,15.9674888 58.1482819,16.7514509 C58.5009292,17.535413 58.6772502,18.4699144 58.6772502,19.554983 C58.6772502,21.8987313 58.1835514,23.6483783 57.1961389,24.8039764 Z M53.1515657,16.8938655 C52.8585972,17.2519381 52.7121151,17.767338 52.7121151,18.4400806 C52.7121151,19.015167 52.8450341,19.4708889 53.1108759,19.8072602 C53.3767177,20.1436315 53.7808997,20.3118146 54.323434,20.3118146 C54.8334163,20.3118146 55.2701499,20.1449878 55.6336479,19.8113292 C55.9971459,19.4776706 56.1788921,19.0938333 56.1788921,18.6598059 C56.1788921,18.01419 56.0093527,17.4689512 55.6702688,17.0240731 C55.3311848,16.5791949 54.8985202,16.3567592 54.3722619,16.3567592 C53.8514289,16.3567592 53.4445343,16.5357928 53.1515657,16.8938655 Z M64.2949219,13 C65.434244,13 66.0814469,14.5813219 66.7786035,15.0994422 C67.4757601,15.6175624 67.8243332,16.3160649 67.8243332,17.1949705 C67.8243332,17.802609 67.6561501,18.3437788 67.3197788,18.8184964 C66.9834075,19.2932139 66.4408813,19.7177406 65.692184,20.0920893 C66.5819403,20.5695195 67.2207649,21.0672873 67.6086769,21.5854076 C67.9965889,22.1035279 68.1905421,22.6718241 68.1905421,23.2903132 C68.1905421,24.266875 67.8080611,25.0521816 67.0430877,25.6462567 C66.2781143,26.2403318 65.2717282,26.5373649 64.0238993,26.5373649 C62.7218169,26.5373649 61.5381939,27.053385 60.7949219,26.5 C60.0516498,25.946615 59.8409805,24.3699562 59.8409805,23.355417 C59.8409805,22.6772491 60.0213705,22.075045 60.3821558,21.5487867 C60.7429411,21.0225284 61.3220878,20.5586685 62.1196133,20.1571931 C61.4414454,19.728591 60.9531718,19.2701564 60.6547779,18.7818755 C60.3563841,18.2935946 60.2071894,17.7592063 60.2071894,17.1786946 C60.2071894,16.3269157 60.5598314,15.6379074 61.265126,15.1116491 C61.9704206,14.5853908 62.8900025,14.3222656 64.0238993,14.3222656 L64.2949219,13 Z M62.6567196,24.299422 C62.9822402,24.5598385 63.4271117,24.6900447 63.9913474,24.6900447 C64.6152618,24.6900447 65.0818344,24.5557695 65.3910789,24.287215 C65.7003235,24.0186605 65.8549435,23.6646622 65.8549435,23.2252094 C65.8549435,22.8617114 65.7016798,22.5212762 65.3951479,22.2038936 C65.088616,21.886511 64.5908482,21.5487885 63.9018297,21.1907158 C62.7462315,21.7223995 62.1684411,22.395132 62.1684411,23.2089334 C62.1684411,23.675513 62.331199,24.0390055 62.6567196,24.299422 Z M62.9700316,16.4910357 C62.7069025,16.7107621 62.5753399,17.0050826 62.5753399,17.3740059 C62.5753399,17.6995265 62.6797761,17.9911344 62.8886519,18.2488382 C63.0975276,18.506542 63.4759396,18.7710235 64.0238993,19.0422907 C64.5555829,18.7927249 64.9272133,18.5377376 65.1388017,18.2773211 C65.3503901,18.0169046 65.4561827,17.7158026 65.4561827,17.3740059 C65.4561827,16.9996573 65.3205512,16.7039805 65.049284,16.4869668 C64.7780169,16.269953 64.4308001,16.1614478 64.0076233,16.1614478 C63.5790212,16.1614478 63.2331608,16.2713093 62.9700316,16.4910357 Z M76.5116207,19.7421564 C77.1925012,20.3877723 77.5329364,21.27209 77.5329364,22.395136 C77.5329364,23.7243451 77.1233291,24.747007 76.3041023,25.4631523 C75.4848755,26.1792976 74.3130189,26.5373649 72.7884975,26.5373649 C71.4647137,26.5373649 70.3959371,26.323067 69.5821356,25.8944649 L69.5821356,23.7216258 C70.0107378,23.9494902 70.5098618,24.1353055 71.0795229,24.279077 C71.6491839,24.4228486 72.1889975,24.4947334 72.6989798,24.4947334 C74.2343519,24.4947334 75.0020264,23.865403 75.0020264,22.6067234 C75.0020264,21.4077225 74.2072256,20.8082311 72.6176,20.8082311 C72.3300568,20.8082311 72.012679,20.8367137 71.665457,20.8936798 C71.3182351,20.9506459 71.0361214,21.0116801 70.8191077,21.0767842 L69.8181369,20.5396779 L70.2949219,13 L76.719139,14.4768871 L76.719139,16.6090364 L72.4711165,16.6090364 L72.2513912,18.944635 L72.5362203,18.8876691 C72.8671662,18.8117143 73.2767735,18.7737375 73.7650544,18.7737375 C74.9152271,18.7737375 75.8307401,19.0965406 76.5116207,19.7421564 Z M86.2949219,28 L82.6517222,26.3746054 L82.6517222,19.4898792 L82.6761361,18.3587008 L82.716826,17.1217287 C82.2990745,17.5394802 82.008823,17.8134559 81.8460627,17.9436641 L80.4788831,19.0422907 L79.2663249,17.5286275 L83.0993108,14.4768871 L85.1663562,14.4768871 L86.2949219,28 Z" id="479851" fill="#FFFFFF"></path>
            </g>
        </g>
    </g>
</svg>