<?xml version="1.0" encoding="UTF-8"?>
<svg width="150px" height="158px" viewBox="0 0 150 158" version="1.1" xmlns="http://www.w3.org/2000/svg" xmlns:xlink="http://www.w3.org/1999/xlink">
    <!-- Generator: Sketch 40.3 (33839) - http://www.bohemiancoding.com/sketch -->
    <title>paper-plane</title>
    <desc>Created with Sketch.</desc>
    <defs>
        <linearGradient x1="-8.37531998e-05%" y1="49.9999363%" x2="99.9999873%" y2="49.9999363%" id="linearGradient-1">
            <stop stop-color="#D2DEFF" stop-opacity="0" offset="0%"></stop>
            <stop stop-color="#E8E8E8" offset="100%"></stop>
        </linearGradient>
    </defs>
    <g id="signup-login-&amp;-email" stroke="none" stroke-width="1" fill="none" fill-rule="evenodd">
        <g id="join-us-verification" transform="translate(-608.000000, -256.000000)">
            <g id="paper-plane" transform="translate(608.000000, 256.000000)">
                <g id="Capa_1">
                    <g id="Group">
                        <g>
                            <path d="M84.4035861,1.4960041 C55.4022541,10.0244877 61.2190574,30.2618852 57.9753074,52.6862705 C53.9268443,80.6735656 36.4297131,66.3230533 16.3269467,81.4377049 C-18.4232582,107.565061 6.81946721,165.239754 49.9748975,156.480738 C72.8904713,151.829816 77.5730533,134.935143 86.9194672,116.883197 C99.0095287,93.5308402 119.058197,99.897541 137.042213,84.6525615 C173.514037,53.7359631 125.545389,-10.6026639 84.4035861,1.4960041 L84.4035861,1.4960041 Z" id="Shape" fill="url(#linearGradient-1)"></path>
                            <g transform="translate(14.139344, 6.762295)">
                                <g transform="translate(3.381148, 19.364754)" id="Shape" fill="#2626BC" opacity="0.1">
                                    <path d="M48.7140369,104.120594 C48.0854508,103.549795 47.1132172,103.597131 46.5430328,104.226332 L29.730123,122.76209 C29.1599385,123.390984 29.2072746,124.36291 29.8358607,124.932787 C30.4626025,125.502049 31.4351434,125.457172 32.0068648,124.827049 L48.8197746,106.291291 C49.389959,105.662398 49.3429303,104.690471 48.7140369,104.120594 L48.7140369,104.120594 Z"></path>
                                    <path d="M31.2737705,78.1567623 C30.6451844,77.5859631 29.6729508,77.6336066 29.1027664,78.2625 L0.587397541,109.699488 C0.0172131148,110.328381 0.0645491803,111.300307 0.693135246,111.870184 C0.987602459,112.137295 1.35706967,112.268852 1.72530738,112.268852 C2.14364754,112.268852 2.5607582,112.098873 2.86413934,111.764447 L31.3795082,80.327459 C31.9496926,79.698873 31.9023566,78.7266393 31.2737705,78.1567623 L31.2737705,78.1567623 Z"></path>
                                    <path d="M26.3326844,91.7105533 L23.0415984,95.3391393 C22.4714139,95.9680328 22.51875,96.939959 23.1473361,97.5098361 C23.4418033,97.7769467 23.8112705,97.9085041 24.1795082,97.9085041 C24.5978484,97.9085041 25.014959,97.7385246 25.3183402,97.4040984 L28.6094262,93.7755123 C29.1796107,93.1466189 29.1322746,92.1746926 28.5036885,91.6048156 C27.8747951,91.033709 26.9028689,91.0816598 26.3326844,91.7105533 L26.3326844,91.7105533 Z"></path>
                                    <path d="M4.37151639,69.0906762 C4.78985656,69.0906762 5.20696721,68.9206967 5.51034836,68.5862705 L8.80143443,64.9579918 C9.37161885,64.3294057 9.32428279,63.3574795 8.69569672,62.7872951 C8.06711066,62.2164959 7.09487705,62.2641393 6.52469262,62.8930328 L3.23360656,66.5210041 C2.66342213,67.1495902 2.7107582,68.1215164 3.33934426,68.6917008 C3.63381148,68.9591189 4.00327869,69.0906762 4.37151639,69.0906762 L4.37151639,69.0906762 Z"></path>
                                    <path d="M113.632377,14.9360656 L55.804918,29.1854508 L55.804918,19.6038934 C55.804918,8.99385246 47.364959,0.15 36.7555328,0.012295082 C25.9758197,-0.127561475 17.19375,8.56875 17.19375,19.3161885 C17.19375,26.6056352 21.2351434,32.9495902 27.1982582,36.2348361 L9.41342213,40.617418 C8.11444672,40.9373975 7.81629098,42.6491803 8.93053279,43.3896516 L25.9103484,54.6737705 L10.5940574,71.5595287 C10.023873,72.1884221 10.071209,73.1603484 10.6997951,73.7302254 C10.9942623,73.9973361 11.3637295,74.1288934 11.7319672,74.1288934 C12.1503074,74.1288934 12.567418,73.9589139 12.8707992,73.6244877 L28.4993852,56.3941598 L36.4991803,61.7105533 L36.548668,61.6813525 L36.4991803,61.9155738 L41.1915984,94.5276639 C41.3772541,95.8186475 42.9854508,96.3058402 43.8565574,95.3354508 L56.0059426,81.8007172 L67.1984631,94.7953893 L44.0007172,120.370389 C43.4305328,120.999283 43.4778689,121.971209 44.1064549,122.541086 C44.7331967,123.110348 45.7057377,123.065471 46.277459,122.435348 L69.2197746,97.1422131 L74.1104508,102.820697 C74.8432377,103.671209 76.2110656,103.474795 76.6745902,102.452459 L115.399488,17.0628074 C115.929713,15.8944672 114.878484,14.6289959 113.632377,14.9360656 L113.632377,14.9360656 Z"></path>
                                </g>
                                <g transform="translate(9.221311, 23.360656)" id="Shape">
                                    <g transform="translate(30.430328, 0.000000)" fill="#FFFFFF">
                                        <polygon points="80.4384221 0.037807377 2.17745902 38.5579918 0.228688525 47.7762295 5.3892418 83.6431352"></polygon>
                                        <polygon points="12.3617828 59.0990779 5.3892418 83.6431352 19.7354508 67.6616803"></polygon>
                                        <polygon points="80.4390369 0.0375 39.4103484 90.5050205 12.361168 59.1003074"></polygon>
                                    </g>
                                    <path d="M64.2713115,66.1976434 C63.6319672,66.7539959 62.6606557,66.6894467 62.1012295,66.0501025 L50.3256148,52.5654713 L52.6463115,50.5521516 L64.4157787,64.0275615 C64.9748975,64.6669057 64.9103484,65.6382172 64.2713115,66.1976434 L64.2713115,66.1976434 Z" fill="#ED3305"></path>
                                    <path d="M69.0571721,61.073668 C68.4178279,61.6330943 67.4465164,61.5654713 66.8870902,60.926127 L55.5940574,47.9947746 L57.9147541,45.9783811 L69.2016393,58.9035861 C69.7607582,59.5429303 69.696209,60.5139344 69.0571721,61.073668 L69.0571721,61.073668 Z" fill="#ED3305"></path>
                                    <path d="M73.8427254,55.9496926 C73.2033811,56.5091189 72.2320697,56.4445697 71.6726434,55.8052254 L60.8621926,43.4240779 L63.1828893,41.4076844 L73.9902664,53.7826844 C74.5466189,54.4220287 74.4820697,55.3933402 73.8427254,55.9496926 L73.8427254,55.9496926 Z" fill="#ED3305"></path>
                                    <path d="M78.6285861,50.828791 C77.9892418,51.3851434 77.0179303,51.3205943 76.4585041,50.68125 L66.1306352,38.8533811 L68.451332,36.8400615 L78.776127,48.658709 C79.3327869,49.2980533 79.2679303,50.2693648 78.6285861,50.828791 L78.6285861,50.828791 Z" fill="#ED3305"></path>
                                    <path d="M83.4144467,45.7048156 C82.7751025,46.2642418 81.803791,46.1966189 81.2474385,45.5572746 L71.3990779,34.2826844 L73.7197746,32.266291 L83.5619877,43.5347336 C84.1186475,44.1740779 84.053791,45.145082 83.4144467,45.7048156 L83.4144467,45.7048156 Z" fill="#ED3305"></path>
                                    <path d="M86.2546107,30.0378074 C85.6152664,30.5972336 84.6439549,30.5296107 84.0845287,29.8902664 L80.798668,26.1279713 L83.1193648,24.1115779 L86.4021516,27.8707992 C86.9588115,28.5101434 86.8939549,29.4783811 86.2546107,30.0378074 L86.2546107,30.0378074 Z" fill="#ED3305"></path>
                                    <polygon fill="#FFFFFF" points="30.6590164 47.571209 110.86875 0.037807377 0.177663934 27.3144467"></polygon>
                                </g>
                                <g transform="translate(20.286885, 9.221311)">
                                    <path d="M36.4788934,38.6216189 L19.59375,38.6216189 C8.93145492,38.6216189 0.288012295,29.9781762 0.288012295,19.3161885 C0.288012295,8.65389344 8.93145492,0.0107581967 19.59375,0.0107581967 C30.2560451,0.0107581967 38.8991803,8.65420082 38.8991803,19.3161885 L38.8991803,36.2016393 C38.8991803,37.5378074 37.8153689,38.6216189 36.4788934,38.6216189 L36.4788934,38.6216189 Z" id="Shape" fill="#6AB83B"></path>
                                    <g transform="translate(7.684426, 16.290984)" id="Oval" fill="#FFFFFF">
                                        <ellipse cx="20.7405738" cy="3.02489754" rx="2.86782787" ry="2.86782787"></ellipse>
                                        <ellipse cx="11.9090164" cy="3.02489754" rx="2.86782787" ry="2.86782787"></ellipse>
                                        <circle cx="3.07776639" cy="3.02489754" r="2.86782787"></circle>
                                    </g>
                                </g>
                                <g transform="translate(0.000000, -0.000000)" id="Shape">
                                    <path d="M75.3519467,20.7405738 C74.5032787,20.7405738 73.8150615,20.0526639 73.8150615,19.2036885 C73.8150615,18.1865779 72.9879098,17.3594262 71.9707992,17.3594262 C71.1221311,17.3594262 70.4339139,16.6715164 70.4339139,15.822541 C70.4339139,14.9735656 71.1221311,14.2856557 71.9707992,14.2856557 C72.9879098,14.2856557 73.8150615,13.4585041 73.8150615,12.4413934 C73.8150615,11.592418 74.5032787,10.9045082 75.3519467,10.9045082 C76.2006148,10.9045082 76.888832,11.592418 76.888832,12.4413934 C76.888832,13.4585041 77.7159836,14.2856557 78.7330943,14.2856557 C79.5817623,14.2856557 80.2699795,14.9735656 80.2699795,15.822541 C80.2699795,16.6715164 79.5817623,17.3594262 78.7330943,17.3594262 C77.7159836,17.3594262 76.888832,18.1865779 76.888832,19.2036885 C76.888832,20.0523566 76.2009221,20.7405738 75.3519467,20.7405738 L75.3519467,20.7405738 Z" fill="#007BFF"></path>
                                    <path d="M106.11793,107.476844 C105.269262,107.476844 104.581045,106.788934 104.581045,105.939959 C104.581045,104.922848 103.753586,104.095697 102.736783,104.095697 C101.888115,104.095697 101.199898,103.407787 101.199898,102.558811 C101.199898,101.709836 101.888115,101.021926 102.736783,101.021926 C103.753893,101.021926 104.581045,100.194775 104.581045,99.1776639 C104.581045,98.3286885 105.269262,97.6407787 106.11793,97.6407787 C106.966598,97.6407787 107.654816,98.3286885 107.654816,99.1776639 C107.654816,100.194775 108.481967,101.021926 109.499078,101.021926 C110.347746,101.021926 111.035963,101.709836 111.035963,102.558811 C111.035963,103.407787 110.347746,104.095697 109.499078,104.095697 C108.482275,104.095697 107.654816,104.922848 107.654816,105.939959 C107.654816,106.788934 106.966598,107.476844 106.11793,107.476844 L106.11793,107.476844 Z" fill="#007BFF"></path>
                                    <path d="M97.4160861,118.783094 C96.567418,118.783094 95.8792008,118.095184 95.8792008,117.246209 C95.8792008,116.229098 95.0520492,115.401947 94.0349385,115.401947 C93.1862705,115.401947 92.4980533,114.714037 92.4980533,113.865061 C92.4980533,113.016086 93.1862705,112.328176 94.0349385,112.328176 C95.0520492,112.328176 95.8792008,111.501025 95.8792008,110.483914 C95.8792008,109.634939 96.567418,108.947029 97.4160861,108.947029 C98.2647541,108.947029 98.9529713,109.634939 98.9529713,110.483914 C98.9529713,111.501025 99.780123,112.328176 100.797234,112.328176 C101.645902,112.328176 102.334119,113.016086 102.334119,113.865061 C102.334119,114.714037 101.645902,115.401947 100.797234,115.401947 C99.780123,115.401947 98.9529713,116.229098 98.9529713,117.246209 C98.9529713,118.095184 98.2647541,118.783094 97.4160861,118.783094 L97.4160861,118.783094 Z" fill="#007BFF"></path>
                                    <path d="M5.10706967,101.03207 C4.6994877,101.03207 4.3085041,100.870389 4.02018443,100.581762 L0.54375,97.1050205 C0.255430328,96.8167008 0.09375,96.4260246 0.09375,96.0184426 C0.09375,95.6108607 0.255737705,95.219877 0.54375,94.9318648 L4.02018443,91.4554303 C4.6204918,90.855123 5.59364754,90.8554303 6.19364754,91.455123 L9.67038934,94.9315574 C9.95870902,95.219877 10.1206967,95.6108607 10.1206967,96.0184426 C10.1206967,96.4260246 9.95870902,96.8170082 9.67069672,97.1050205 L6.19364754,100.58207 C5.90532787,100.870389 5.51465164,101.03207 5.10706967,101.03207 L5.10706967,101.03207 Z M3.80409836,96.01875 L5.10706967,97.3217213 L6.41004098,96.01875 L5.10706967,94.7160861 L3.80409836,96.01875 Z" fill="#ED3305"></path>
                                    <path d="M57.1435451,10.0752049 C56.7501025,10.0752049 56.3569672,9.92520492 56.0566598,9.62489754 L52.5802254,6.14846311 C52.2919057,5.86014344 52.1302254,5.46946721 52.1302254,5.06188525 C52.1302254,4.65430328 52.2922131,4.26331967 52.5802254,3.97530738 L56.0566598,0.498565574 C56.3449795,0.210245902 56.7359631,0.0482581967 57.1435451,0.0482581967 C57.551127,0.0482581967 57.9421107,0.209938525 58.2304303,0.498565574 L61.7071721,3.97530738 C61.9954918,4.26362705 62.1571721,4.65430328 62.1571721,5.06188525 C62.1571721,5.46946721 61.9951844,5.86045082 61.7068648,6.14877049 L58.2304303,9.62520492 C57.930123,9.92520492 57.5366803,10.0752049 57.1435451,10.0752049 L57.1435451,10.0752049 Z M55.8405738,5.06219262 L57.1435451,6.36485656 L58.4465164,5.06219262 L57.1435451,3.75922131 L55.8405738,5.06219262 Z" fill="#007BFF"></path>
                                </g>
                            </g>
                        </g>
                        <g transform="translate(17.520492, 14.446721)" id="Shape" fill="#ED3305">
                            <path d="M118.240574,15.6285861 C118.209221,14.6929303 117.244365,13.9835041 116.341291,14.2217213 L57.3418033,28.7606557 L57.3418033,20.8527664 C57.3418033,9.35993852 47.9917008,0.00983606557 36.4991803,0.00983606557 C25.0066598,0.00983606557 15.6565574,9.35993852 15.6565574,20.8527664 C15.6565574,27.4195697 18.7125,33.2830943 23.4734631,37.10625 L5.64989754,41.4983607 C5.05788934,41.6443648 4.60819672,42.1260246 4.50368852,42.7266393 C4.39918033,43.3272541 4.65922131,43.9330943 5.1670082,44.2702869 L26.4313525,58.4019467 L10.59375,75.8621926 C10.0235656,76.4910861 10.0709016,77.4630123 10.6994877,78.0328893 C10.9936475,78.3 11.3634221,78.4315574 11.7316598,78.4315574 C12.15,78.4315574 12.5671107,78.2615779 12.8704918,77.9271516 L29.0203893,60.1226434 L35.0428279,64.125 L40.1382172,99.5379098 C40.2943648,100.805225 41.9920082,101.30625 42.8148566,100.33248 L55.832582,85.4901639 L67.3807377,98.8976434 L44.0004098,124.673361 C43.4302254,125.302254 43.4775615,126.27418 44.1061475,126.844057 C44.4006148,127.111168 44.770082,127.242725 45.1383197,127.242725 C45.5566598,127.242725 45.9737705,127.072746 46.2771516,126.73832 L69.4017418,101.24416 L74.5168033,107.182992 C75.2056352,108.029816 76.6601434,107.818033 77.0809426,106.815061 L82.8248975,94.1495902 C83.1756148,93.3762295 82.8328893,92.4654713 82.0598361,92.1150615 C81.2864754,91.7643443 80.3760246,92.1070697 80.0253074,92.8798156 L75.2751025,103.353996 L50.7949795,74.9320697 L112.404406,21.4813525 L84.2917008,83.4716189 C83.9409836,84.2449795 84.283709,85.1557377 85.0567623,85.5061475 C85.8295082,85.85625 86.7405738,85.513832 87.091291,84.7413934 L118.107787,16.3481557 C118.201537,16.1206967 118.254406,15.8760246 118.240574,15.6285861 L118.240574,15.6285861 Z M27.0104508,39.4005123 C29.8589139,40.863627 33.0826844,41.695082 36.4991803,41.695082 L39.498873,41.695082 C40.347541,41.695082 41.0357582,41.0071721 41.0357582,40.1581967 C41.0357582,39.3092213 40.347541,38.6213115 39.498873,38.6213115 L36.4991803,38.6213115 C26.7015369,38.6213115 18.7303279,30.6504098 18.7303279,20.8527664 C18.7303279,11.0548156 26.7015369,3.08360656 36.4991803,3.08360656 C46.2968238,3.08360656 54.2680328,11.0548156 54.2680328,20.8527664 L54.2680328,37.7379098 C54.2680328,38.2251025 53.8718238,38.6213115 53.3846311,38.6213115 L49.8454918,38.6213115 C48.9968238,38.6213115 48.3086066,39.3092213 48.3086066,40.1581967 C48.3086066,41.0071721 48.9968238,41.695082 49.8454918,41.695082 L53.3846311,41.695082 C55.5667008,41.695082 57.3418033,39.9199795 57.3418033,37.7379098 L57.3418033,31.9260246 L106.976434,19.694877 L36.5459016,61.4332992 L9.7807377,43.6463115 L27.0104508,39.4005123 Z M53.8072746,83.1387295 L45.0021516,93.1779713 L49.3306352,77.941291 L53.8072746,83.1387295 Z M47.6419057,73.5998975 C47.4076844,73.8067623 47.2370902,74.0747951 47.1482582,74.3744877 L42.1530738,91.9579918 L38.1393443,64.0619877 L102.811168,25.736373 L47.6419057,73.5998975 Z"></path>
                            <path d="M48.7140369,108.423566 C48.0851434,107.852766 47.1132172,107.90041 46.5430328,108.529303 L29.730123,127.065061 C29.1599385,127.693955 29.2072746,128.665881 29.8358607,129.235758 C30.4626025,129.80502 31.4351434,129.760143 32.0068648,129.13002 L48.8197746,110.594262 C49.3902664,109.965676 49.3429303,108.99375 48.7140369,108.423566 L48.7140369,108.423566 Z"></path>
                            <path d="M31.2737705,82.460041 C30.644877,81.8892418 29.6729508,81.9368852 29.1027664,82.5657787 L0.587397541,114.003074 C0.0172131148,114.631967 0.0645491803,115.603893 0.693135246,116.17377 C0.987295082,116.440881 1.35706967,116.572439 1.72530738,116.572439 C2.14364754,116.572439 2.5607582,116.402459 2.86413934,116.068033 L31.3792008,84.6310451 C31.9496926,84.0021516 31.9023566,83.0302254 31.2737705,82.460041 L31.2737705,82.460041 Z"></path>
                            <path d="M26.3326844,96.013832 L23.0415984,99.6421107 C22.4714139,100.270697 22.51875,101.242623 23.1473361,101.812807 C23.4414959,102.079918 23.8112705,102.211475 24.1795082,102.211475 C24.5978484,102.211475 25.014959,102.041496 25.3183402,101.70707 L28.6094262,98.078791 C29.1796107,97.4502049 29.1322746,96.4782787 28.5036885,95.9080943 C27.8747951,95.3372951 26.9028689,95.3849385 26.3326844,96.013832 L26.3326844,96.013832 Z"></path>
                            <path d="M5.51065574,72.8898566 L8.8017418,69.2612705 C9.37192623,68.632377 9.32459016,67.6604508 8.6960041,67.0905738 C8.06711066,66.5197746 7.09518443,66.567418 6.525,67.1963115 L3.23360656,70.8245902 C2.66342213,71.4534836 2.7107582,72.4254098 3.33934426,72.9952869 C3.63381148,73.2623975 4.00327869,73.3939549 4.37151639,73.3939549 C4.79016393,73.3939549 5.20727459,73.2242828 5.51065574,72.8898566 L5.51065574,72.8898566 Z"></path>
                        </g>
                    </g>
                </g>
            </g>
        </g>
    </g>
</svg>