<?xml version="1.0" encoding="UTF-8"?>
<svg width="192px" height="141px" viewBox="0 0 192 141" version="1.1" xmlns="http://www.w3.org/2000/svg" xmlns:xlink="http://www.w3.org/1999/xlink">
    <!-- Generator: Sketch 40.3 (33839) - http://www.bohemiancoding.com/sketch -->
    <title>Page 1</title>
    <desc>Created with Sketch.</desc>
    <defs>
        <polygon id="path-1" points="4.16122002e-05 2.49673203 190.665896 2.49673203 190.665896 0.291451852 4.16122002e-05 0.291451852 4.16122002e-05 2.49673203"></polygon>
        <polygon id="path-3" points="2.27373675e-13 139.802429 190.66627 139.802429 190.66627 -2.84217094e-14 2.27373675e-13 -2.84217094e-14"></polygon>
    </defs>
    <g id="signup-login-&amp;-email" stroke="none" stroke-width="1" fill="none" fill-rule="evenodd">
        <g id="Password-changed" transform="translate(-587.000000, -260.000000)">
            <g id="Page-1" transform="translate(587.419643, 261.091503)">
                <path d="M54.9034285,31.6852355 C56.9415941,27.9734272 61.6025767,26.6172856 65.314385,28.6558673 C69.0316028,30.6973619 70.3881606,35.3579283 68.3495789,39.0697366 C66.3076682,42.7873706 61.6471017,44.1435122 57.9294678,42.1016015 C54.2180756,40.0634359 52.8615179,35.4028695 54.9034285,31.6852355 L54.9034285,31.6852355 Z M47.7161693,27.7383183 C46.6908447,29.6054577 46.0812259,31.5891113 45.8573523,33.5815035 L47.5800974,33.7774969 C47.3666268,35.6554556 47.5380691,37.5425688 48.0515636,39.3248194 L46.3908207,39.8083532 C46.9625723,41.7728651 47.9088338,43.627937 49.2063022,45.2553902 L49.5096551,45.0169523 L50.5628599,44.1776342 C51.6938795,45.6011876 53.1265876,46.8308281 54.8214525,47.761693 L53.9854634,49.2830351 C55.853019,50.3087758 57.8366725,50.9179784 59.8323937,51.1364425 L60.027971,49.4136974 C61.9030168,49.6329937 63.7897139,49.4615514 65.5727967,48.9472246 L66.0559144,50.6083837 C68.0200102,50.0370481 69.8784111,49.0841288 71.5058643,47.7874926 L71.5004547,47.7841636 L71.1921083,47.38968 L70.4285244,46.4309349 C71.8520778,45.2994991 73.0788054,43.8726168 74.0092542,42.178168 L75.5305963,43.013741 C76.556337,41.1461854 77.1688686,39.1571222 77.3869166,37.1614011 L75.6641715,36.9654076 C75.8834678,35.090778 75.7091126,33.2090743 75.195202,31.4264076 L76.8559449,30.94329 C76.2846094,28.978778 75.3321061,27.1203771 74.0354699,25.492924 L72.67808,26.57068 C71.5470603,25.1471266 70.120178,23.920815 68.4257292,22.9899501 L69.2613022,21.4686081 C67.3941627,20.4428673 65.4046834,19.8307519 63.4089623,19.6122878 L63.2129688,21.335449 C61.3383392,21.1157366 59.4566355,21.2905078 57.6739688,21.8040024 L57.1908512,20.1436756 C55.2209296,20.7120983 53.3683545,21.6675144 51.7404852,22.9641505 L51.7492237,22.9762181 L52.4591279,23.8687998 L52.8182412,24.3211244 C51.3942717,25.452144 50.1650473,26.8852682 49.2379275,28.5734752 L47.7161693,27.7383183 L47.7161693,27.7383183 Z" id="Fill-1" fill="#99DAFF"></path>
                <path d="M76.6856261,5.79749499 C78.4208549,4.20749281 81.1160771,4.32525534 82.7060793,6.06090022 C84.2985782,7.79904183 84.1808157,10.4938479 82.4455869,12.0838501 C80.7074453,13.6767651 78.0122231,13.5585865 76.4193081,11.820861 C74.829722,10.0852161 74.9474845,7.3899939 76.6856261,5.79749499 L76.6856261,5.79749499 Z M73.6071556,2.4373098 C72.7337155,3.23751242 72.0591817,4.17253856 71.5856349,5.18163442 L72.4574105,5.59193072 C72.0100793,6.54235338 71.763319,7.56642963 71.715881,8.59633159 L70.7554715,8.55430327 C70.7055368,9.69031634 70.8728179,10.8354841 71.2652209,11.9240593 L71.4674562,11.8524863 L72.1715346,11.5986519 C72.5131708,12.5503229 73.0478876,13.4524754 73.7736044,14.2451878 L73.0620357,14.8968349 C73.8622383,15.7698588 74.7976806,16.4443926 75.8092732,16.9158588 L76.2195695,16.0436671 C77.1670793,16.4939111 78.1911556,16.7402553 79.2214736,16.7876932 L79.1790292,17.748519 C80.3154584,17.7980375 81.4631229,17.6286758 82.5512819,17.2362728 L82.5487852,17.2333599 L82.4568222,16.9707869 L82.2262906,16.329959 C83.1779617,15.9883229 84.0780336,15.4561028 84.8699137,14.7303861 L85.5215608,15.4415386 C86.3950009,14.6417521 87.0720314,13.7038131 87.5430815,12.6922205 L86.6713059,12.2815081 C87.1215499,11.3339983 87.3653974,10.3128349 87.4128353,9.28251678 L88.3732449,9.3245451 C88.4227634,8.18853203 88.2534017,7.04003529 87.8609987,5.95229237 L86.954685,6.27728366 C86.6130488,5.32602876 86.0808288,4.42595686 85.355112,3.63366057 L86.0662645,2.98159739 C85.266478,2.10898954 84.328539,1.43154292 83.3173625,0.96049281 L82.9066501,1.83268453 C81.9587242,1.38244052 80.9375608,1.13859303 79.9072427,1.090739 L79.949271,0.130329412 C78.8107612,0.0783141612 77.6651773,0.250588671 76.5770183,0.642575599 L76.579515,0.650481917 L76.7938179,1.24678475 L76.9024257,1.54930545 C75.9507547,1.89052549 75.0477699,2.42524227 74.2583865,3.14887843 L73.6071556,2.4373098 L73.6071556,2.4373098 Z" id="Stroke-3" stroke="#135BCC" stroke-width="0.582"></path>
                <g id="Group-7" transform="translate(0.000000, 137.305697)">
                    <mask id="mask-2" fill="white">
                        <use xlink:href="#path-1"></use>
                    </mask>
                    <g id="Clip-6"></g>
                    <path d="M189.563588,2.49689847 L1.10276492,2.49689847 C0.493562309,2.49689847 4.16122002e-05,2.00296166 4.16122002e-05,1.39417516 C4.16122002e-05,0.785388671 0.493562309,0.291451852 1.10276492,0.291451852 L189.563588,0.291451852 C190.172375,0.291451852 190.665896,0.785388671 190.665896,1.39417516 C190.665896,2.00296166 190.172375,2.49689847 189.563588,2.49689847" id="Fill-5" fill="#000000" mask="url(#mask-2)"></path>
                </g>
                <path d="M167.111684,132.247401 L24.4962702,132.247401 C22.5775316,132.247401 21.0220675,130.692353 21.0220675,128.773199 L21.0220675,40.269458 C21.0220675,38.3507194 22.5775316,36.7948392 24.4962702,36.7948392 L167.111684,36.7948392 C169.030423,36.7948392 170.586303,38.3507194 170.586303,40.269458 L170.586303,128.773199 C170.586303,130.692353 169.030423,132.247401 167.111684,132.247401" id="Fill-8" fill="#B3D1FF"></path>
                <path d="M24.4964366,131.60287 C22.9359791,131.60287 21.666807,130.333282 21.666807,128.772824 L21.666807,40.2694996 C21.666807,38.7094582 22.9359791,37.4398699 24.4964366,37.4398699 L167.111851,37.4398699 C168.672308,37.4398699 169.941064,38.7094582 169.941064,40.2694996 L169.941064,128.772824 C169.941064,130.333282 168.672308,131.60287 167.111851,131.60287 L24.4964366,131.60287 Z" id="Fill-10" fill="#000000"></path>
                <mask id="mask-4" fill="white">
                    <use xlink:href="#path-3"></use>
                </mask>
                <g id="Clip-13"></g>
                <polygon id="Fill-12" fill="#AAE0FF" mask="url(#mask-4)" points="26.0733725 127.945033 165.685634 127.945033 165.685634 40.6542876 26.0733725 40.6542876"></polygon>
                <path d="M180.816912,132.247401 L180.816912,134.572275 C180.816912,134.690454 180.810254,134.8078 180.795274,134.922234 C180.622999,136.428179 179.34384,137.597066 177.791289,137.597066 L11.887607,137.597066 C10.3354719,137.597066 9.0571451,136.428179 8.88445447,134.922234 C8.8698902,134.8078 8.86323224,134.690454 8.86323224,134.572275 L8.86323224,132.247401 L180.816912,132.247401 Z" id="Fill-14" fill="#599AFF" mask="url(#mask-4)"></path>
                <path d="M180.795357,134.922109 C180.623082,136.428054 179.343923,137.597357 177.791372,137.597357 L11.8876902,137.597357 C10.335139,137.597357 9.05722832,136.428054 8.88453769,134.922109 L180.795357,134.922109 Z" id="Fill-15" fill="#3358CC" mask="url(#mask-4)"></path>
                <path d="M127.622372,3.66570196 C127.601149,3.64281525 127.578679,3.62159303 127.558289,3.59870632 C118.841781,12.9352357 104.934152,20.5868871 90.051132,23.8467869 C90.0461386,24.8413185 90.0220035,30.347861 89.9084022,55.7313033 C89.7569338,89.591983 121.982254,106.138658 126.985289,108.677835 C112.287444,49.1815429 123.801123,13.195312 127.622372,3.66570196" id="Fill-16" fill="#ED3305" mask="url(#mask-4)"></path>
                <path d="M127.622372,3.66570196 C123.801123,13.195312 112.287444,49.1815429 126.985289,108.677835 C131.832278,106.446589 164.464149,89.926129 164.615202,56.0654492 C164.729219,30.682007 164.753354,25.1746322 164.758348,24.1809329 C149.940659,20.7961965 136.258152,13.0492532 127.622372,3.66570196" id="Fill-17" fill="#ED3305" mask="url(#mask-4)"></path>
                <path d="M91.0963057,24.6871869 C91.0879832,26.5218688 91.066761,31.4229538 91.0105845,43.9627904 L90.957737,55.7357142 C90.8249941,85.4763699 115.751534,101.70596 127.005554,107.509198 C132.435114,104.917174 163.420807,88.6892479 163.566449,56.0607054 C163.662574,34.5858972 163.694615,27.3366357 163.705018,25.0117621 C149.708338,21.6528253 136.326271,14.2870497 127.552338,5.12404314 C118.710994,14.1900932 105.22448,21.4326967 91.0963057,24.6871869 L91.0963057,24.6871869 Z M126.962693,109.843226 L126.510369,109.613527 C116.706534,104.63754 109.820964,98.7519102 105.771264,94.6909756 C94.484371,83.3728732 88.7943187,70.2633656 88.8592338,55.7265595 L88.9120813,43.9536357 C88.9807414,28.5225834 88.9978024,24.6597229 89.0015475,23.8424593 L89.0052926,23.0018928 L89.8263013,22.8221281 C104.269896,19.6579364 118.088476,12.204359 126.790835,2.88281002 L127.557332,2.06180131 L128.394569,2.95479913 C137.036175,12.3450083 150.717434,19.8972065 164.992083,23.1575224 L165.81226,23.3451935 L165.807683,24.186176 C165.802689,25.1802915 165.778138,30.6872501 165.664953,56.0698601 C165.508075,91.0936009 131.321571,107.837102 127.424173,109.631004 L126.962693,109.843226 Z" id="Fill-18" fill="#FFFFFF" mask="url(#mask-4)"></path>
                <path d="M127.498825,12.4566954 L127.503819,12.4504536 L127.498825,12.4566954 Z M97.2255331,29.71702 L97.109019,55.8120309 C97.0557553,67.8441987 101.849065,78.7432662 111.358285,88.2054645 C117.303836,94.1239678 123.531934,97.9156715 127.045668,99.7948784 C130.380054,98.0484144 136.764198,94.2858392 142.838747,88.346946 C152.432856,78.9688044 157.323954,68.1125974 157.377217,56.0804296 L157.492899,29.9874993 C145.888089,26.7409155 135.286548,21.1357521 127.430997,14.0920549 C119.515108,21.0620985 108.866546,26.5732183 97.2255331,29.71702 L97.2255331,29.71702 Z M127.037762,102.637408 L126.45852,102.336136 C122.955189,100.513937 116.102908,96.4871246 109.579363,89.9922924 C99.574958,80.0361573 94.5303109,68.5328806 94.5881519,55.7999634 L94.7129885,27.7679046 L95.6550887,27.5240571 C107.697243,24.4168741 118.682448,18.7135059 126.585853,11.46258 L127.475938,10.6449002 L128.329821,11.4996148 L127.507564,12.4546148 L128.366856,11.5320723 C136.202433,18.8262749 147.111903,24.607458 159.08415,27.8091007 L160.024169,28.0587739 L159.898084,56.0929133 C159.84274,68.8237499 154.695311,80.2820854 144.601439,90.1504187 C138.223121,96.3864231 131.518564,100.309205 128.090134,102.094369 L127.037762,102.637408 Z" id="Fill-19" fill="#FFFFFF" mask="url(#mask-4)"></path>
                <path d="M129.049129,62.9387028 L129.049129,69.2383739 C129.049129,70.0772758 128.366689,70.7738641 127.527787,70.7738641 C126.674737,70.7738641 125.991881,70.0772758 125.991881,69.2383739 L125.991881,62.9245547 C124.697741,62.3411516 123.787683,61.0332802 123.787683,59.5260863 C123.787683,57.4642017 125.465903,55.800546 127.527787,55.800546 C129.589256,55.800546 131.253327,57.4642017 131.253327,59.5260863 C131.253327,61.0474283 130.357417,62.356132 129.049129,62.9387028 L129.049129,62.9387028 Z M112.412155,51.1366505 L112.412155,73.3621429 C112.412155,75.8359882 142.629271,75.8359882 142.629271,73.3621429 L142.629271,51.1366505 L112.412155,51.1366505 Z" id="Fill-20" fill="#FFFFFF" mask="url(#mask-4)"></path>
                <path d="M139.984108,49.552058 L136.925195,49.552058 L136.925195,48.0556832 C136.925195,42.8699708 132.706966,38.6513259 127.522086,38.6513259 C122.336374,38.6513259 118.117729,42.8699708 118.117729,48.0556832 L118.117729,49.552058 L115.059232,49.552058 L115.059232,48.0556832 C115.059232,41.1834283 120.649831,35.5924131 127.522086,35.5924131 C134.393093,35.5924131 139.984108,41.1834283 139.984108,48.0556832 L139.984108,49.552058 Z" id="Fill-21" fill="#FFFFFF" mask="url(#mask-4)"></path>
                <polygon id="Fill-22" fill="#FFFFFF" mask="url(#mask-4)" points="39.5565577 94.7068715 81.100098 94.7068715 81.100098 86.4959521 39.5565577 86.4959521"></polygon>
                <path d="M49.6543407,90.8834593 C49.6543407,91.8738296 48.8512253,92.6769451 47.8608549,92.6769451 C46.8709007,92.6769451 46.0677852,91.8738296 46.0677852,90.8834593 C46.0677852,89.8930889 46.8709007,89.0899734 47.8608549,89.0899734 C48.8512253,89.0899734 49.6543407,89.8930889 49.6543407,90.8834593" id="Fill-23" fill="#296ACC" mask="url(#mask-4)"></path>
                <path d="M55.8027098,90.8834593 C55.8027098,91.8738296 54.9995943,92.6769451 54.009224,92.6769451 C53.0192697,92.6769451 52.2161542,91.8738296 52.2161542,90.8834593 C52.2161542,89.8930889 53.0192697,89.0899734 54.009224,89.0899734 C54.9995943,89.0899734 55.8027098,89.8930889 55.8027098,90.8834593" id="Fill-24" fill="#296ACC" mask="url(#mask-4)"></path>
                <path d="M61.9506627,90.8834593 C61.9506627,91.8738296 61.1479634,92.6769451 60.157593,92.6769451 C59.1676388,92.6769451 58.3645233,91.8738296 58.3645233,90.8834593 C58.3645233,89.8930889 59.1676388,89.0899734 60.157593,89.0899734 C61.1479634,89.0899734 61.9506627,89.8930889 61.9506627,90.8834593" id="Fill-25" fill="#296ACC" mask="url(#mask-4)"></path>
                <path d="M68.0990318,90.8834593 C68.0990318,91.8738296 67.2959163,92.6769451 66.305546,92.6769451 C65.3155917,92.6769451 64.5128924,91.8738296 64.5128924,90.8834593 C64.5128924,89.8930889 65.3155917,89.0899734 66.305546,89.0899734 C67.2959163,89.0899734 68.0990318,89.8930889 68.0990318,90.8834593" id="Fill-26" fill="#296ACC" mask="url(#mask-4)"></path>
                <path d="M74.2474009,90.8834593 C74.2474009,91.8738296 73.4442854,92.6769451 72.453915,92.6769451 C71.4639608,92.6769451 70.6608453,91.8738296 70.6608453,90.8834593 C70.6608453,89.8930889 71.4639608,89.0899734 72.453915,89.0899734 C73.4442854,89.0899734 74.2474009,89.8930889 74.2474009,90.8834593" id="Fill-27" fill="#296ACC" mask="url(#mask-4)"></path>
                <polygon id="Fill-28" fill="#FFFFFF" mask="url(#mask-4)" points="39.5565577 83.8132135 81.100098 83.8132135 81.100098 75.6022941 39.5565577 75.6022941"></polygon>
                <path d="M49.6543407,79.9899261 C49.6543407,80.9802965 48.8512253,81.783412 47.8608549,81.783412 C46.8709007,81.783412 46.0677852,80.9802965 46.0677852,79.9899261 C46.0677852,78.9995558 46.8709007,78.1964403 47.8608549,78.1964403 C48.8512253,78.1964403 49.6543407,78.9995558 49.6543407,79.9899261" id="Fill-29" fill="#296ACC" mask="url(#mask-4)"></path>
                <path d="M55.8027098,79.9899261 C55.8027098,80.9802965 54.9995943,81.783412 54.009224,81.783412 C53.0192697,81.783412 52.2161542,80.9802965 52.2161542,79.9899261 C52.2161542,78.9995558 53.0192697,78.1964403 54.009224,78.1964403 C54.9995943,78.1964403 55.8027098,78.9995558 55.8027098,79.9899261" id="Fill-30" fill="#296ACC" mask="url(#mask-4)"></path>
                <path d="M61.9506627,79.9899261 C61.9506627,80.9802965 61.1479634,81.783412 60.157593,81.783412 C59.1676388,81.783412 58.3645233,80.9802965 58.3645233,79.9899261 C58.3645233,78.9995558 59.1676388,78.1964403 60.157593,78.1964403 C61.1479634,78.1964403 61.9506627,78.9995558 61.9506627,79.9899261" id="Fill-31" fill="#296ACC" mask="url(#mask-4)"></path>
                <path d="M68.0990318,79.9899261 C68.0990318,80.9802965 67.2959163,81.783412 66.305546,81.783412 C65.3155917,81.783412 64.5128924,80.9802965 64.5128924,79.9899261 C64.5128924,78.9995558 65.3155917,78.1964403 66.305546,78.1964403 C67.2959163,78.1964403 68.0990318,78.9995558 68.0990318,79.9899261" id="Fill-32" fill="#296ACC" mask="url(#mask-4)"></path>
                <path d="M74.2474009,79.9899261 C74.2474009,80.9802965 73.4442854,81.783412 72.453915,81.783412 C71.4639608,81.783412 70.6608453,80.9802965 70.6608453,79.9899261 C70.6608453,78.9995558 71.4639608,78.1964403 72.453915,78.1964403 C73.4442854,78.1964403 74.2474009,78.9995558 74.2474009,79.9899261" id="Fill-33" fill="#296ACC" mask="url(#mask-4)"></path>
                <path d="M65.7185227,106.249513 L54.5989105,106.249513 C53.0230564,106.249513 51.7451458,104.971603 51.7451458,103.395332 C51.7451458,101.819062 53.0230564,100.541152 54.5989105,100.541152 L65.7185227,100.541152 C67.2943767,100.541152 68.5722874,101.819062 68.5722874,103.395332 C68.5722874,104.971603 67.2943767,106.249513 65.7185227,106.249513" id="Fill-34" fill="#296ACC" mask="url(#mask-4)"></path>
                <path d="M67.1196887,65.6955111 C67.1196887,69.3860972 64.1277715,72.3780144 60.4371854,72.3780144 C56.7465993,72.3780144 53.7550983,69.3860972 53.7550983,65.6955111 C53.7550983,62.0049251 56.7465993,59.0130078 60.4371854,59.0130078 C64.1277715,59.0130078 67.1196887,62.0049251 67.1196887,65.6955111" id="Fill-35" fill="#FFFFFF" mask="url(#mask-4)"></path>
                <path d="M60.4467146,65.4264882 C61.0987778,65.4264882 61.7017386,65.108571 62.0858192,64.6233728 C62.3704466,64.2725819 62.5377277,63.8206734 62.5377277,63.3188303 C62.5377277,62.1645078 61.6006209,61.2107562 60.4467146,61.2107562 C59.2761634,61.2107562 58.3390566,62.1645078 58.3390566,63.3188303 C58.3390566,63.8206734 58.5059216,64.2725819 58.7909651,64.6233728 C59.1750458,65.108571 59.7775904,65.4264882 60.4467146,65.4264882" id="Fill-36" fill="#005CEB" mask="url(#mask-4)"></path>
                <path d="M64.1507414,69.1825719 C64.1507414,70.5129139 56.7221314,70.5129139 56.7221314,69.1825719 L56.7246281,67.6325174 C57.0179941,65.5136242 63.5469484,65.4245741 64.1519898,67.6325174 L64.1507414,69.1825719 Z" id="Fill-37" fill="#005CEB" mask="url(#mask-4)"></path>
            </g>
        </g>
    </g>
</svg>