<?xml version="1.0" encoding="UTF-8"?>
<svg width="18px" height="18px" viewBox="0 0 18 18" version="1.1" xmlns="http://www.w3.org/2000/svg" xmlns:xlink="http://www.w3.org/1999/xlink">
    <!-- Generator: Sketch 40.3 (33839) - http://www.bohemiancoding.com/sketch -->
    <title>Group</title>
    <desc>Created with Sketch.</desc>
    <defs></defs>
    <g id="signup-login-&amp;-email" stroke="none" stroke-width="1" fill="none" fill-rule="evenodd">
        <g id="join-us" transform="translate(-1094.000000, -453.000000)" fill="#5B5B5B">
            <g id="Group" transform="translate(1094.000000, 453.000000)">
                <path d="M4.96653061,2.74756098 C7.4755102,1.14512195 10.6787755,1.21463415 13.0922449,2.78780488 L12.3465306,2.87926829 C11.935102,2.9304878 11.644898,3.30365854 11.6926531,3.71341463 C11.7404082,4.0902439 12.0636735,4.36829268 12.4346939,4.36829268 C12.4640816,4.36829268 15.0942857,4.04634146 15.0942857,4.04634146 C15.2926531,4.02073171 15.4726531,3.92195122 15.5938776,3.76463415 C15.715102,3.60731707 15.7702041,3.4097561 15.7444898,3.21219512 L15.424898,0.654878049 C15.3734694,0.245121951 14.995102,-0.0475609756 14.5873469,0.00731707317 C14.1759184,0.0585365854 13.8857143,0.431707317 13.9371429,0.841463415 L14.0363265,1.62073171 C11.1232653,-0.351219512 7.21102041,-0.464634146 4.15836735,1.48902439 C0.591428571,3.76829268 -0.892653061,8.27560976 0.628163265,12.2085366 C0.742040816,12.504878 1.11306122,12.8012195 1.59795918,12.6365854 C1.99102041,12.5012195 2.17836735,12.054878 2.0277551,11.6707317 C0.764081633,8.39634146 1.99836735,4.64634146 4.96653061,2.74756098 L4.96653061,2.74756098 Z" id="Shape"></path>
                <path d="M17.3755102,5.75853659 C17.2616327,5.46219512 16.8906122,5.16585366 16.4057143,5.3304878 C16.0126531,5.46585366 15.8253061,5.91219512 15.9759184,6.29634146 C17.2432653,9.57073171 16.0053061,13.3207317 13.0371429,15.2195122 C10.5281633,16.8219512 7.32489796,16.752439 4.91142857,15.1792683 L5.65714286,15.0878049 C6.06857143,15.0365854 6.35877551,14.6634146 6.31102041,14.2536585 C6.26326531,13.8768293 5.94,13.5987805 5.56897959,13.5987805 C5.53959184,13.5987805 2.90938776,13.9207317 2.90938776,13.9207317 C2.71102041,13.9463415 2.53102041,14.045122 2.40979592,14.202439 C2.28857143,14.3597561 2.23346939,14.5573171 2.25918367,14.754878 L2.57877551,17.3121951 C2.63020408,17.7219512 3.00857143,18.0146341 3.41632653,17.9597561 C3.8277551,17.9085366 4.11795918,17.5353659 4.06653061,17.1256098 L3.96734694,16.3463415 C6.88408163,18.3146341 10.7963265,18.4280488 13.8526531,16.4743902 C17.4122449,14.1987805 18.8963265,9.69146341 17.3755102,5.75853659 L17.3755102,5.75853659 Z" id="Shape"></path>
            </g>
        </g>
    </g>
</svg>